<svg width="408" height="333" viewBox="0 0 408 333" fill="none" xmlns="http://www.w3.org/2000/svg">
<path d="M166.288 332.576C258.126 332.576 332.576 258.126 332.576 166.288C332.576 74.4496 258.126 0 166.288 0C74.4496 0 0 74.4496 0 166.288C0 258.126 74.4496 332.576 166.288 332.576Z" fill="url(#paint0_linear_346_154)"/>
<g filter="url(#filter0_d_346_154)">
<path d="M90.9081 75.3838H390.226C393.166 75.3838 395.986 76.5518 398.065 78.6308C400.144 80.7098 401.312 83.5295 401.312 86.4696V141.899C401.312 144.839 400.144 147.659 398.065 149.738C395.986 151.817 393.166 152.985 390.226 152.985H90.9081C87.968 152.985 85.1482 151.817 83.0692 149.738C80.9902 147.659 79.8223 144.839 79.8223 141.899V86.4696C79.8223 83.5295 80.9902 80.7098 83.0692 78.6308C85.1482 76.5518 87.968 75.3838 90.9081 75.3838V75.3838Z" fill="white"/>
</g>
<path d="M232.806 93.1211H175.159C171.486 93.1211 168.508 96.0991 168.508 99.7726C168.508 103.446 171.486 106.424 175.159 106.424H232.806C236.479 106.424 239.457 103.446 239.457 99.7726C239.457 96.0991 236.479 93.1211 232.806 93.1211Z" fill="#B4DAFF"/>
<path d="M272.715 121.944H175.159C171.486 121.944 168.508 124.922 168.508 128.596C168.508 132.269 171.486 135.247 175.159 135.247H272.715C276.388 135.247 279.366 132.269 279.366 128.596C279.366 124.922 276.388 121.944 272.715 121.944Z" fill="#DEE9FC"/>
<path d="M150.769 114.185C150.769 96.4292 136.375 82.0356 118.62 82.0356C100.864 82.0356 86.4707 96.4292 86.4707 114.185C86.4707 131.94 100.864 146.334 118.62 146.334C136.375 146.334 150.769 131.94 150.769 114.185Z" fill="#1485FD"/>
<path d="M116.626 124.592C119.379 124.591 122.052 123.67 124.22 121.975L131.038 128.793L133.231 126.6L126.411 119.78C128.124 117.565 129.037 114.835 129 112.034C128.963 109.234 127.978 106.528 126.207 104.359C124.436 102.19 121.982 100.684 119.245 100.088C116.509 99.4916 113.651 99.8398 111.138 101.076C108.625 102.311 106.604 104.362 105.405 106.893C104.207 109.425 103.901 112.287 104.537 115.015C105.174 117.742 106.715 120.173 108.911 121.913C111.106 123.652 113.826 124.596 116.626 124.592ZM116.626 102.877C118.468 102.877 120.268 103.423 121.8 104.446C123.331 105.469 124.525 106.924 125.23 108.625C125.934 110.327 126.119 112.199 125.759 114.006C125.4 115.812 124.513 117.471 123.211 118.773C121.909 120.076 120.249 120.963 118.443 121.322C116.637 121.681 114.764 121.497 113.063 120.792C111.361 120.087 109.907 118.894 108.884 117.362C107.86 115.831 107.314 114.031 107.314 112.189C107.314 109.719 108.295 107.351 110.042 105.604C111.788 103.858 114.157 102.877 116.626 102.877Z" fill="white"/>
<g filter="url(#filter1_d_346_154)">
<path d="M356.968 175.157H57.6503C51.5278 175.157 46.5645 180.121 46.5645 186.243V241.672C46.5645 247.795 51.5278 252.758 57.6503 252.758H356.968C363.091 252.758 368.054 247.795 368.054 241.672V186.243C368.054 180.121 363.091 175.157 356.968 175.157Z" fill="white"/>
</g>
<path d="M199.548 192.894H141.902C138.228 192.894 135.25 195.872 135.25 199.546C135.25 203.219 138.228 206.197 141.902 206.197H199.548C203.221 206.197 206.199 203.219 206.199 199.546C206.199 195.872 203.221 192.894 199.548 192.894Z" fill="#B4DAFF"/>
<path d="M239.457 221.717H141.902C138.228 221.717 135.25 224.695 135.25 228.369C135.25 232.042 138.228 235.02 141.902 235.02H239.457C243.131 235.02 246.109 232.042 246.109 228.369C246.109 224.695 243.131 221.717 239.457 221.717Z" fill="#DEE9FC"/>
<path d="M117.511 213.958C117.511 196.202 103.117 181.809 85.3619 181.809C67.6065 181.809 53.2129 196.202 53.2129 213.958C53.2129 231.713 67.6065 246.107 85.3619 246.107C103.117 246.107 117.511 231.713 117.511 213.958Z" fill="#1485FD"/>
<path d="M83.3684 224.365C86.1207 224.364 88.7938 223.443 90.9623 221.748L97.7801 228.566L99.9728 226.373L93.1528 219.553C94.8663 217.338 95.7789 214.608 95.742 211.807C95.705 209.007 94.7207 206.301 92.9493 204.132C91.178 201.963 88.7241 200.457 85.9876 199.861C83.2511 199.265 80.3933 199.613 77.88 200.849C75.3667 202.084 73.3461 204.135 72.1475 206.666C70.9489 209.198 70.6429 212.06 71.2795 214.788C71.916 217.515 73.4575 219.946 75.6528 221.686C77.8481 223.425 80.5677 224.369 83.3684 224.365ZM83.3684 202.65C85.2102 202.65 87.0106 203.196 88.542 204.219C90.0734 205.242 91.2669 206.697 91.9717 208.398C92.6765 210.1 92.8609 211.972 92.5016 213.778C92.1423 215.585 91.2554 217.244 89.9531 218.546C88.6508 219.849 86.9915 220.736 85.1851 221.095C83.3788 221.454 81.5064 221.27 79.8049 220.565C78.1033 219.86 76.6489 218.667 75.6257 217.135C74.6025 215.604 74.0563 213.804 74.0563 211.962C74.0563 209.492 75.0374 207.123 76.7838 205.377C78.5301 203.631 80.8987 202.65 83.3684 202.65Z" fill="white"/>
<defs>
<filter id="filter0_d_346_154" x="73.8223" y="72.3838" width="333.49" height="89.6011" filterUnits="userSpaceOnUse" color-interpolation-filters="sRGB">
<feFlood flood-opacity="0" result="BackgroundImageFix"/>
<feColorMatrix in="SourceAlpha" type="matrix" values="0 0 0 0 0 0 0 0 0 0 0 0 0 0 0 0 0 0 127 0" result="hardAlpha"/>
<feOffset dy="3"/>
<feGaussianBlur stdDeviation="3"/>
<feColorMatrix type="matrix" values="0 0 0 0 0 0 0 0 0 0 0 0 0 0 0 0 0 0 0.161 0"/>
<feBlend mode="normal" in2="BackgroundImageFix" result="effect1_dropShadow_346_154"/>
<feBlend mode="normal" in="SourceGraphic" in2="effect1_dropShadow_346_154" result="shape"/>
</filter>
<filter id="filter1_d_346_154" x="40.5645" y="172.157" width="333.49" height="89.6011" filterUnits="userSpaceOnUse" color-interpolation-filters="sRGB">
<feFlood flood-opacity="0" result="BackgroundImageFix"/>
<feColorMatrix in="SourceAlpha" type="matrix" values="0 0 0 0 0 0 0 0 0 0 0 0 0 0 0 0 0 0 127 0" result="hardAlpha"/>
<feOffset dy="3"/>
<feGaussianBlur stdDeviation="3"/>
<feColorMatrix type="matrix" values="0 0 0 0 0 0 0 0 0 0 0 0 0 0 0 0 0 0 0.161 0"/>
<feBlend mode="normal" in2="BackgroundImageFix" result="effect1_dropShadow_346_154"/>
<feBlend mode="normal" in="SourceGraphic" in2="effect1_dropShadow_346_154" result="shape"/>
</filter>
<linearGradient id="paint0_linear_346_154" x1="166.288" y1="0" x2="166.288" y2="332.576" gradientUnits="userSpaceOnUse">
<stop stop-color="#E3ECFA"/>
<stop offset="1" stop-color="#DAE7FF"/>
</linearGradient>
</defs>
</svg>
