<svg width="477" height="346" viewBox="0 0 477 346" fill="none" xmlns="http://www.w3.org/2000/svg">
<path d="M391.544 0H94.9721C81.3228 0 70.2578 11.065 70.2578 24.7143V321.286C70.2578 334.935 81.3228 346 94.9721 346H391.544C405.193 346 416.258 334.935 416.258 321.286V24.7143C416.258 11.065 405.193 0 391.544 0Z" fill="url(#paint0_linear_342_608)"/>
<g filter="url(#filter0_d_342_608)">
<path d="M352 24.7144H18.3571C11.5325 24.7144 6 30.2468 6 37.0715V98.8572C6 105.682 11.5325 111.214 18.3571 111.214H352C358.825 111.214 364.357 105.682 364.357 98.8572V37.0715C364.357 30.2468 358.825 24.7144 352 24.7144Z" fill="white"/>
</g>
<path d="M176.529 44.4858H112.272C108.177 44.4858 104.857 47.8053 104.857 51.9001C104.857 55.9949 108.177 59.3144 112.272 59.3144H176.529C180.624 59.3144 183.943 55.9949 183.943 51.9001C183.943 47.8053 180.624 44.4858 176.529 44.4858Z" fill="#B4DAFF"/>
<path d="M221.015 76.6143H112.272C108.177 76.6143 104.857 79.9337 104.857 84.0285C104.857 88.1233 108.177 91.4428 112.272 91.4428H221.015C225.109 91.4428 228.429 88.1233 228.429 84.0285C228.429 79.9337 225.109 76.6143 221.015 76.6143Z" fill="#DEE9FC"/>
<path d="M72.7283 32.1289H25.7712C18.9465 32.1289 13.4141 37.6614 13.4141 44.486V91.4432C13.4141 98.2678 18.9465 103.8 25.7712 103.8H72.7283C79.553 103.8 85.0855 98.2678 85.0855 91.4432V44.486C85.0855 37.6614 79.553 32.1289 72.7283 32.1289Z" fill="#1485FD"/>
<path d="M43.6196 76.0702H48.5625L48.6169 74.1672C48.6169 71.6661 50.1936 71.0137 52.4229 70.3069C54.659 69.6707 56.6273 68.3239 58.0301 66.4699C59.4328 64.6159 60.1938 62.3555 60.198 60.0307C60.2469 58.6112 60.0007 57.197 59.4748 55.8777C58.949 54.5583 58.1549 53.3624 57.143 52.3658C56.1311 51.3692 54.9232 50.5935 53.596 50.0879C52.2688 49.5822 50.851 49.3576 49.4324 49.4282C47.9333 49.3955 46.4432 49.6677 45.0524 50.2282C43.6616 50.7888 42.3991 51.6259 41.3416 52.689C40.2841 53.7521 39.4535 55.0189 38.9003 56.4126C38.347 57.8063 38.0827 59.2978 38.1232 60.7968H43.2341C43.2147 59.9692 43.3607 59.146 43.6635 58.3755C43.9663 57.605 44.4199 56.9027 44.9977 56.3098C45.5754 55.7169 46.2657 55.2452 47.028 54.9225C47.7904 54.5998 48.6095 54.4325 49.4374 54.4304C50.1839 54.3871 50.9311 54.5051 51.628 54.7762C52.3249 55.0474 52.9553 55.4654 53.4763 56.0019C53.9973 56.5383 54.3967 57.1807 54.6473 57.8852C54.898 58.5898 54.994 59.34 54.9289 60.085C54.896 61.2908 54.4767 62.4541 53.7327 63.4036C52.9888 64.3532 51.9596 65.0386 50.7967 65.3591L49.0024 66.0708C47.2457 66.4941 45.7121 67.5616 44.7051 69.062C43.6982 70.5623 43.2914 72.3861 43.5653 74.1722L43.6196 76.0702ZM46.0664 87.8194C46.5504 87.8366 47.0329 87.7566 47.4855 87.5841C47.938 87.4116 48.3514 87.1501 48.7012 86.8151C49.0509 86.48 49.3299 86.0783 49.5218 85.6336C49.7136 85.1889 49.8143 84.7102 49.818 84.2259C49.8137 83.7421 49.7125 83.2639 49.5203 82.8198C49.3282 82.3757 49.0491 81.9745 48.6994 81.64C48.3497 81.3056 47.9366 81.0445 47.4843 80.8723C47.0321 80.7001 46.55 80.6202 46.0664 80.6374C45.5828 80.6202 45.1006 80.7001 44.6484 80.8723C44.1962 81.0445 43.783 81.3056 43.4333 81.64C43.0836 81.9745 42.8045 82.3757 42.6124 82.8198C42.4202 83.2639 42.319 83.7421 42.3147 84.2259C42.3184 84.7102 42.4191 85.1889 42.6109 85.6336C42.8028 86.0783 43.0818 86.48 43.4316 86.8151C43.7813 87.1501 44.1947 87.4116 44.6472 87.5841C45.0998 87.7566 45.5823 87.8366 46.0664 87.8194Z" fill="white"/>
<g filter="url(#filter1_d_342_608)">
<path d="M124.629 130.986H458.271C461.549 130.986 464.692 132.288 467.009 134.605C469.327 136.923 470.629 140.066 470.629 143.343V205.129C470.629 208.406 469.327 211.549 467.009 213.867C464.692 216.184 461.549 217.486 458.271 217.486H124.629C121.351 217.486 118.208 216.184 115.891 213.867C113.573 211.549 112.271 208.406 112.271 205.129V143.343C112.271 140.066 113.573 136.923 115.891 134.605C118.208 132.288 121.351 130.986 124.629 130.986V130.986Z" fill="white"/>
</g>
<path d="M282.8 150.757H218.543C214.448 150.757 211.129 154.077 211.129 158.172C211.129 162.266 214.448 165.586 218.543 165.586H282.8C286.895 165.586 290.215 162.266 290.215 158.172C290.215 154.077 286.895 150.757 282.8 150.757Z" fill="#B4DAFF"/>
<path d="M327.286 182.886H218.543C214.448 182.886 211.129 186.205 211.129 190.3C211.129 194.395 214.448 197.714 218.543 197.714H327.286C331.381 197.714 334.7 194.395 334.7 190.3C334.7 186.205 331.381 182.886 327.286 182.886Z" fill="#DEE9FC"/>
<path d="M179 138.4H132.043C125.218 138.4 119.686 143.932 119.686 150.757V197.714C119.686 204.539 125.218 210.071 132.043 210.071H179C185.824 210.071 191.357 204.539 191.357 197.714V150.757C191.357 143.932 185.824 138.4 179 138.4Z" fill="#1485FD"/>
<path d="M149.891 182.341H154.834L154.888 180.438C154.888 177.937 156.465 177.285 158.694 176.578C160.931 175.942 162.899 174.595 164.302 172.741C165.704 170.887 166.465 168.627 166.469 166.302C166.518 164.882 166.272 163.468 165.746 162.149C165.22 160.829 164.426 159.633 163.414 158.637C162.403 157.64 161.195 156.865 159.867 156.359C158.54 155.853 157.122 155.629 155.704 155.699C154.205 155.667 152.715 155.939 151.324 156.499C149.933 157.06 148.671 157.897 147.613 158.96C146.556 160.023 145.725 161.29 145.172 162.684C144.619 164.077 144.354 165.569 144.395 167.068H149.506C149.486 166.24 149.632 165.417 149.935 164.646C150.238 163.876 150.691 163.174 151.269 162.581C151.847 161.988 152.537 161.516 153.3 161.193C154.062 160.871 154.881 160.703 155.709 160.701C156.455 160.658 157.203 160.776 157.899 161.047C158.596 161.318 159.227 161.736 159.748 162.273C160.269 162.809 160.668 163.452 160.919 164.156C161.169 164.861 161.265 165.611 161.2 166.356C161.167 167.562 160.748 168.725 160.004 169.675C159.26 170.624 158.231 171.31 157.068 171.63L155.274 172.342C153.517 172.765 151.984 173.833 150.977 175.333C149.97 176.833 149.563 178.657 149.837 180.443L149.891 182.341ZM152.338 194.09C152.822 194.108 153.304 194.028 153.757 193.855C154.21 193.683 154.623 193.421 154.973 193.086C155.322 192.751 155.601 192.349 155.793 191.905C155.985 191.46 156.086 190.981 156.089 190.497C156.085 190.013 155.984 189.535 155.792 189.091C155.6 188.647 155.321 188.246 154.971 187.911C154.621 187.577 154.208 187.316 153.756 187.143C153.304 186.971 152.821 186.891 152.338 186.908C151.854 186.891 151.372 186.971 150.92 187.143C150.468 187.316 150.054 187.577 149.705 187.911C149.355 188.246 149.076 188.647 148.884 189.091C148.692 189.535 148.591 190.013 148.586 190.497C148.59 190.981 148.691 191.46 148.882 191.905C149.074 192.349 149.353 192.751 149.703 193.086C150.053 193.421 150.466 193.683 150.919 193.855C151.371 194.028 151.854 194.108 152.338 194.09Z" fill="white"/>
<g filter="url(#filter2_d_342_608)">
<path d="M18.3571 237.257H352C355.277 237.257 358.42 238.559 360.738 240.877C363.055 243.194 364.357 246.337 364.357 249.614V311.4C364.357 314.677 363.055 317.821 360.738 320.138C358.42 322.455 355.277 323.757 352 323.757H18.3571C15.0798 323.757 11.9367 322.455 9.61932 320.138C7.30191 317.821 6 314.677 6 311.4L6 249.614C6 246.337 7.30191 243.194 9.61932 240.877C11.9367 238.559 15.0798 237.257 18.3571 237.257V237.257Z" fill="white"/>
</g>
<path d="M176.529 257.029H112.272C108.177 257.029 104.857 260.348 104.857 264.443C104.857 268.538 108.177 271.857 112.272 271.857H176.529C180.624 271.857 183.943 268.538 183.943 264.443C183.943 260.348 180.624 257.029 176.529 257.029Z" fill="#B4DAFF"/>
<path d="M221.015 289.157H112.272C108.177 289.157 104.857 292.477 104.857 296.572C104.857 300.666 108.177 303.986 112.272 303.986H221.015C225.109 303.986 228.429 300.666 228.429 296.572C228.429 292.477 225.109 289.157 221.015 289.157Z" fill="#DEE9FC"/>
<path d="M72.7283 244.671H25.7712C18.9465 244.671 13.4141 250.204 13.4141 257.029V303.986C13.4141 310.81 18.9465 316.343 25.7712 316.343H72.7283C79.553 316.343 85.0855 310.81 85.0855 303.986V257.029C85.0855 250.204 79.553 244.671 72.7283 244.671Z" fill="#1485FD"/>
<path d="M43.6196 288.613H48.5625L48.6169 286.71C48.6169 284.209 50.1936 283.556 52.4229 282.849C54.659 282.213 56.6273 280.866 58.0301 279.012C59.4328 277.158 60.1938 274.898 60.198 272.573C60.2469 271.154 60.0007 269.74 59.4748 268.42C58.949 267.101 58.1549 265.905 57.143 264.908C56.1311 263.912 54.9232 263.136 53.596 262.63C52.2688 262.125 50.851 261.9 49.4324 261.971C47.9333 261.938 46.4432 262.21 45.0524 262.771C43.6616 263.331 42.3991 264.168 41.3416 265.231C40.2841 266.295 39.4535 267.561 38.9003 268.955C38.347 270.349 38.0827 271.84 38.1232 273.339H43.2341C43.2147 272.512 43.3607 271.688 43.6635 270.918C43.9663 270.147 44.4199 269.445 44.9977 268.852C45.5754 268.259 46.2657 267.788 47.028 267.465C47.7904 267.142 48.6095 266.975 49.4374 266.973C50.1839 266.93 50.9311 267.048 51.628 267.319C52.3249 267.59 52.9553 268.008 53.4763 268.544C53.9973 269.081 54.3967 269.723 54.6473 270.428C54.898 271.132 54.994 271.883 54.9289 272.628C54.896 273.833 54.4767 274.997 53.7327 275.946C52.9888 276.896 51.9596 277.581 50.7967 277.902L49.0024 278.613C47.2457 279.037 45.7121 280.104 44.7051 281.604C43.6982 283.105 43.2914 284.929 43.5653 286.715L43.6196 288.613ZM46.0664 300.362C46.5504 300.379 47.0329 300.299 47.4855 300.127C47.938 299.954 48.3514 299.693 48.7012 299.358C49.0509 299.023 49.3299 298.621 49.5218 298.176C49.7136 297.731 49.8143 297.253 49.818 296.768C49.8137 296.285 49.7125 295.806 49.5203 295.362C49.3282 294.918 49.0491 294.517 48.6994 294.183C48.3497 293.848 47.9366 293.587 47.4843 293.415C47.0321 293.243 46.55 293.163 46.0664 293.18C45.5828 293.163 45.1006 293.243 44.6484 293.415C44.1962 293.587 43.783 293.848 43.4333 294.183C43.0836 294.517 42.8045 294.918 42.6124 295.362C42.4202 295.806 42.319 296.285 42.3147 296.768C42.3184 297.253 42.4191 297.731 42.6109 298.176C42.8028 298.621 43.0818 299.023 43.4316 299.358C43.7813 299.693 44.1947 299.954 44.6472 300.127C45.0998 300.299 45.5823 300.379 46.0664 300.362Z" fill="white"/>
<defs>
<filter id="filter0_d_342_608" x="0" y="21.7144" width="370.357" height="98.5" filterUnits="userSpaceOnUse" color-interpolation-filters="sRGB">
<feFlood flood-opacity="0" result="BackgroundImageFix"/>
<feColorMatrix in="SourceAlpha" type="matrix" values="0 0 0 0 0 0 0 0 0 0 0 0 0 0 0 0 0 0 127 0" result="hardAlpha"/>
<feOffset dy="3"/>
<feGaussianBlur stdDeviation="3"/>
<feColorMatrix type="matrix" values="0 0 0 0 0 0 0 0 0 0 0 0 0 0 0 0 0 0 0.161 0"/>
<feBlend mode="normal" in2="BackgroundImageFix" result="effect1_dropShadow_342_608"/>
<feBlend mode="normal" in="SourceGraphic" in2="effect1_dropShadow_342_608" result="shape"/>
</filter>
<filter id="filter1_d_342_608" x="106.271" y="127.986" width="370.357" height="98.5" filterUnits="userSpaceOnUse" color-interpolation-filters="sRGB">
<feFlood flood-opacity="0" result="BackgroundImageFix"/>
<feColorMatrix in="SourceAlpha" type="matrix" values="0 0 0 0 0 0 0 0 0 0 0 0 0 0 0 0 0 0 127 0" result="hardAlpha"/>
<feOffset dy="3"/>
<feGaussianBlur stdDeviation="3"/>
<feColorMatrix type="matrix" values="0 0 0 0 0 0 0 0 0 0 0 0 0 0 0 0 0 0 0.161 0"/>
<feBlend mode="normal" in2="BackgroundImageFix" result="effect1_dropShadow_342_608"/>
<feBlend mode="normal" in="SourceGraphic" in2="effect1_dropShadow_342_608" result="shape"/>
</filter>
<filter id="filter2_d_342_608" x="0" y="234.257" width="370.357" height="98.5" filterUnits="userSpaceOnUse" color-interpolation-filters="sRGB">
<feFlood flood-opacity="0" result="BackgroundImageFix"/>
<feColorMatrix in="SourceAlpha" type="matrix" values="0 0 0 0 0 0 0 0 0 0 0 0 0 0 0 0 0 0 127 0" result="hardAlpha"/>
<feOffset dy="3"/>
<feGaussianBlur stdDeviation="3"/>
<feColorMatrix type="matrix" values="0 0 0 0 0 0 0 0 0 0 0 0 0 0 0 0 0 0 0.161 0"/>
<feBlend mode="normal" in2="BackgroundImageFix" result="effect1_dropShadow_342_608"/>
<feBlend mode="normal" in="SourceGraphic" in2="effect1_dropShadow_342_608" result="shape"/>
</filter>
<linearGradient id="paint0_linear_342_608" x1="243.258" y1="0" x2="243.258" y2="346" gradientUnits="userSpaceOnUse">
<stop stop-color="#E3ECFA"/>
<stop offset="1" stop-color="#DAE7FF"/>
</linearGradient>
</defs>
</svg>
