    <svg width="303" height="158" viewBox="0 0 303 158" fill="none" xmlns="http://www.w3.org/2000/svg">
    <path d="M38.016 28.44C37.104 26.76 35.784 25.488 34.056 24.624C32.376 23.712 30.384 23.256 28.08 23.256C24.096 23.256 20.904 24.576 18.504 27.216C16.104 29.808 14.904 33.288 14.904 37.656C14.904 42.312 16.152 45.96 18.648 48.6C21.192 51.192 24.672 52.488 29.088 52.488C32.112 52.488 34.656 51.72 36.72 50.184C38.832 48.648 40.368 46.44 41.328 43.56H25.704V34.488H52.488V45.936C51.576 49.008 50.016 51.864 47.808 54.504C45.648 57.144 42.888 59.28 39.528 60.912C36.168 62.544 32.376 63.36 28.152 63.36C23.16 63.36 18.696 62.28 14.76 60.12C10.872 57.912 7.824 54.864 5.616 50.976C3.456 47.088 2.376 42.648 2.376 37.656C2.376 32.664 3.456 28.224 5.616 24.336C7.824 20.4 10.872 17.352 14.76 15.192C18.648 12.984 23.088 11.88 28.08 11.88C34.128 11.88 39.216 13.344 43.344 16.272C47.52 19.2 50.28 23.256 51.624 28.44H38.016ZM78.3158 63.576C74.3798 63.576 70.8278 62.736 67.6598 61.056C64.5398 59.376 62.0678 56.976 60.2438 53.856C58.4678 50.736 57.5798 47.088 57.5798 42.912C57.5798 38.784 58.4918 35.16 60.3158 32.04C62.1398 28.872 64.6358 26.448 67.8038 24.768C70.9718 23.088 74.5238 22.248 78.4598 22.248C82.3958 22.248 85.9478 23.088 89.1158 24.768C92.2838 26.448 94.7798 28.872 96.6038 32.04C98.4278 35.16 99.3398 38.784 99.3398 42.912C99.3398 47.04 98.4038 50.688 96.5318 53.856C94.7078 56.976 92.1878 59.376 88.9718 61.056C85.8038 62.736 82.2518 63.576 78.3158 63.576ZM78.3158 52.92C80.6678 52.92 82.6598 52.056 84.2918 50.328C85.9718 48.6 86.8118 46.128 86.8118 42.912C86.8118 39.696 85.9958 37.224 84.3638 35.496C82.7798 33.768 80.8118 32.904 78.4598 32.904C76.0598 32.904 74.0678 33.768 72.4838 35.496C70.8998 37.176 70.1078 39.648 70.1078 42.912C70.1078 46.128 70.8758 48.6 72.4118 50.328C73.9958 52.056 75.9638 52.92 78.3158 52.92Z" fill="white"/>
    <path d="M35.064 111.08C37.992 111.704 40.344 113.168 42.12 115.472C43.896 117.728 44.784 120.32 44.784 123.248C44.784 127.472 43.296 130.832 40.32 133.328C37.392 135.776 33.288 137 28.008 137H4.464V86.456H27.216C32.352 86.456 36.36 87.632 39.24 89.984C42.168 92.336 43.632 95.528 43.632 99.56C43.632 102.536 42.84 105.008 41.256 106.976C39.72 108.944 37.656 110.312 35.064 111.08ZM16.776 106.904H24.84C26.856 106.904 28.392 106.472 29.448 105.608C30.552 104.696 31.104 103.376 31.104 101.648C31.104 99.92 30.552 98.6 29.448 97.688C28.392 96.776 26.856 96.32 24.84 96.32H16.776V106.904ZM25.848 127.064C27.912 127.064 29.496 126.608 30.6 125.696C31.752 124.736 32.328 123.368 32.328 121.592C32.328 119.816 31.728 118.424 30.528 117.416C29.376 116.408 27.768 115.904 25.704 115.904H16.776V127.064H25.848ZM90.5169 116.264C90.5169 117.416 90.4449 118.616 90.3009 119.864H62.4369C62.6289 122.36 63.4209 124.28 64.8129 125.624C66.2529 126.92 68.0049 127.568 70.0689 127.568C73.1409 127.568 75.2769 126.272 76.4769 123.68H89.5809C88.9089 126.32 87.6849 128.696 85.9089 130.808C84.1809 132.92 81.9969 134.576 79.3569 135.776C76.7169 136.976 73.7649 137.576 70.5009 137.576C66.5649 137.576 63.0609 136.736 59.9889 135.056C56.9169 133.376 54.5169 130.976 52.7889 127.856C51.0609 124.736 50.1969 121.088 50.1969 116.912C50.1969 112.736 51.0369 109.088 52.7169 105.968C54.4449 102.848 56.8449 100.448 59.9169 98.768C62.9889 97.088 66.5169 96.248 70.5009 96.248C74.3889 96.248 77.8449 97.064 80.8689 98.696C83.8929 100.328 86.2449 102.656 87.9249 105.68C89.6529 108.704 90.5169 112.232 90.5169 116.264ZM77.9169 113.024C77.9169 110.912 77.1969 109.232 75.7569 107.984C74.3169 106.736 72.5169 106.112 70.3569 106.112C68.2929 106.112 66.5409 106.712 65.1009 107.912C63.7089 109.112 62.8449 110.816 62.5089 113.024H77.9169ZM138.772 96.824L113.572 156.08H100.324L109.54 135.632L93.1961 96.824H106.948L116.236 121.952L125.452 96.824H138.772ZM162.232 137.576C158.296 137.576 154.744 136.736 151.576 135.056C148.456 133.376 145.984 130.976 144.16 127.856C142.384 124.736 141.496 121.088 141.496 116.912C141.496 112.784 142.408 109.16 144.232 106.04C146.056 102.872 148.552 100.448 151.72 98.768C154.888 97.088 158.44 96.248 162.376 96.248C166.312 96.248 169.864 97.088 173.032 98.768C176.2 100.448 178.696 102.872 180.52 106.04C182.344 109.16 183.256 112.784 183.256 116.912C183.256 121.04 182.32 124.688 180.448 127.856C178.624 130.976 176.104 133.376 172.888 135.056C169.72 136.736 166.168 137.576 162.232 137.576ZM162.232 126.92C164.584 126.92 166.576 126.056 168.208 124.328C169.888 122.6 170.728 120.128 170.728 116.912C170.728 113.696 169.912 111.224 168.28 109.496C166.696 107.768 164.728 106.904 162.376 106.904C159.976 106.904 157.984 107.768 156.4 109.496C154.816 111.176 154.024 113.648 154.024 116.912C154.024 120.128 154.792 122.6 156.328 124.328C157.912 126.056 159.88 126.92 162.232 126.92ZM214.988 96.392C219.692 96.392 223.436 97.928 226.22 101C229.052 104.024 230.468 108.2 230.468 113.528V137H218.228V115.184C218.228 112.496 217.532 110.408 216.14 108.92C214.748 107.432 212.876 106.688 210.524 106.688C208.172 106.688 206.3 107.432 204.908 108.92C203.516 110.408 202.82 112.496 202.82 115.184V137H190.508V96.824H202.82V102.152C204.068 100.376 205.748 98.984 207.86 97.976C209.972 96.92 212.348 96.392 214.988 96.392ZM237.296 116.84C237.296 112.712 238.064 109.088 239.6 105.968C241.184 102.848 243.32 100.448 246.008 98.768C248.696 97.088 251.696 96.248 255.008 96.248C257.648 96.248 260.048 96.8 262.208 97.904C264.416 99.008 266.144 100.496 267.392 102.368V83.72H279.704V137H267.392V131.24C266.24 133.16 264.584 134.696 262.424 135.848C260.312 137 257.84 137.576 255.008 137.576C251.696 137.576 248.696 136.736 246.008 135.056C243.32 133.328 241.184 130.904 239.6 127.784C238.064 124.616 237.296 120.968 237.296 116.84ZM267.392 116.912C267.392 113.84 266.528 111.416 264.8 109.64C263.12 107.864 261.056 106.976 258.608 106.976C256.16 106.976 254.072 107.864 252.344 109.64C250.664 111.368 249.824 113.768 249.824 116.84C249.824 119.912 250.664 122.36 252.344 124.184C254.072 125.96 256.16 126.848 258.608 126.848C261.056 126.848 263.12 125.96 264.8 124.184C266.528 122.408 267.392 119.984 267.392 116.912Z" fill="url(#paint0_radial_242_162)"/>
    <defs>
    <radialGradient id="paint0_radial_242_162" cx="0" cy="0" r="1" gradientUnits="userSpaceOnUse" gradientTransform="translate(215.605 98.8366) rotate(102.562) scale(60.4922 190.675)">
    <stop offset="0.00887753" stop-color="#DEF9FA"/>
    <stop offset="0.1723" stop-color="#BEF3F5"/>
    <stop offset="0.4204" stop-color="#9DEDF0"/>
    <stop offset="0.5512" stop-color="#7DE7EB"/>
    <stop offset="0.7154" stop-color="#5CE1E6"/>
    <stop offset="1" stop-color="#33BBCF"/>
    </radialGradient>
    </defs>
    </svg>
