<svg width="356" height="158" viewBox="0 0 356 158" fill="none" xmlns="http://www.w3.org/2000/svg">
<mask id="path-1-outside-1_242_163" maskUnits="userSpaceOnUse" x="1" y="10" width="100" height="55" fill="black">
<rect fill="white" x="1" y="10" width="100" height="55"/>
<path d="M38.016 28.44C37.104 26.76 35.784 25.488 34.056 24.624C32.376 23.712 30.384 23.256 28.08 23.256C24.096 23.256 20.904 24.576 18.504 27.216C16.104 29.808 14.904 33.288 14.904 37.656C14.904 42.312 16.152 45.96 18.648 48.6C21.192 51.192 24.672 52.488 29.088 52.488C32.112 52.488 34.656 51.72 36.72 50.184C38.832 48.648 40.368 46.44 41.328 43.56H25.704V34.488H52.488V45.936C51.576 49.008 50.016 51.864 47.808 54.504C45.648 57.144 42.888 59.28 39.528 60.912C36.168 62.544 32.376 63.36 28.152 63.36C23.16 63.36 18.696 62.28 14.76 60.12C10.872 57.912 7.824 54.864 5.616 50.976C3.456 47.088 2.376 42.648 2.376 37.656C2.376 32.664 3.456 28.224 5.616 24.336C7.824 20.4 10.872 17.352 14.76 15.192C18.648 12.984 23.088 11.88 28.08 11.88C34.128 11.88 39.216 13.344 43.344 16.272C47.52 19.2 50.28 23.256 51.624 28.44H38.016ZM78.3158 63.576C74.3798 63.576 70.8278 62.736 67.6598 61.056C64.5398 59.376 62.0678 56.976 60.2438 53.856C58.4678 50.736 57.5798 47.088 57.5798 42.912C57.5798 38.784 58.4918 35.16 60.3158 32.04C62.1398 28.872 64.6358 26.448 67.8038 24.768C70.9718 23.088 74.5238 22.248 78.4598 22.248C82.3958 22.248 85.9478 23.088 89.1158 24.768C92.2838 26.448 94.7798 28.872 96.6038 32.04C98.4278 35.16 99.3398 38.784 99.3398 42.912C99.3398 47.04 98.4038 50.688 96.5318 53.856C94.7078 56.976 92.1878 59.376 88.9718 61.056C85.8038 62.736 82.2518 63.576 78.3158 63.576ZM78.3158 52.92C80.6678 52.92 82.6598 52.056 84.2918 50.328C85.9718 48.6 86.8118 46.128 86.8118 42.912C86.8118 39.696 85.9958 37.224 84.3638 35.496C82.7798 33.768 80.8118 32.904 78.4598 32.904C76.0598 32.904 74.0678 33.768 72.4838 35.496C70.8998 37.176 70.1078 39.648 70.1078 42.912C70.1078 46.128 70.8758 48.6 72.4118 50.328C73.9958 52.056 75.9638 52.92 78.3158 52.92Z"/>
</mask>
<path d="M38.016 28.44L37.1371 28.9171L37.421 29.44H38.016V28.44ZM34.056 24.624L33.5789 25.5028L33.5937 25.5109L33.6088 25.5184L34.056 24.624ZM18.504 27.216L19.2378 27.8954L19.2439 27.8887L18.504 27.216ZM18.648 48.6L17.9214 49.287L17.9278 49.2938L17.9343 49.3005L18.648 48.6ZM36.72 50.184L36.1318 49.3752L36.123 49.3818L36.72 50.184ZM41.328 43.56L42.2767 43.8762L42.7154 42.56H41.328V43.56ZM25.704 43.56H24.704V44.56H25.704V43.56ZM25.704 34.488V33.488H24.704V34.488H25.704ZM52.488 34.488H53.488V33.488H52.488V34.488ZM52.488 45.936L53.4466 46.2206L53.488 46.0813V45.936H52.488ZM47.808 54.504L47.0409 53.8624L47.034 53.8708L47.808 54.504ZM39.528 60.912L39.0911 60.0125L39.528 60.912ZM14.76 60.12L14.2662 60.9896L14.2725 60.9932L14.2789 60.9967L14.76 60.12ZM5.616 50.976L4.7418 51.4617L4.74644 51.4698L5.616 50.976ZM5.616 24.336L4.74385 23.8467L4.74184 23.8504L5.616 24.336ZM14.76 15.192L15.2457 16.0662L15.2538 16.0616L14.76 15.192ZM43.344 16.272L42.7655 17.0877L42.7699 17.0908L43.344 16.272ZM51.624 28.44V29.44H52.9163L52.592 28.189L51.624 28.44ZM38.8949 27.9629C37.884 26.1008 36.4124 24.6841 34.5032 23.7296L33.6088 25.5184C35.1556 26.2919 36.324 27.4192 37.1371 28.9171L38.8949 27.9629ZM34.5331 23.7451C32.6794 22.7389 30.5166 22.256 28.08 22.256V24.256C30.2514 24.256 32.0726 24.6851 33.5789 25.5028L34.5331 23.7451ZM28.08 22.256C23.8508 22.256 20.3768 23.6693 17.7641 26.5433L19.2439 27.8887C21.4312 25.4827 24.3412 24.256 28.08 24.256V22.256ZM17.7702 26.5366C15.1609 29.3546 13.904 33.0985 13.904 37.656H15.904C15.904 33.4775 17.0471 30.2613 19.2378 27.8954L17.7702 26.5366ZM13.904 37.656C13.904 42.4928 15.2044 46.4134 17.9214 49.287L19.3746 47.913C17.0996 45.5066 15.904 42.1312 15.904 37.656H13.904ZM17.9343 49.3005C20.7057 52.1242 24.4655 53.488 29.088 53.488V51.488C24.8785 51.488 21.6783 50.2598 19.3617 47.8995L17.9343 49.3005ZM29.088 53.488C32.2881 53.488 35.0516 52.6721 37.317 50.9862L36.123 49.3818C34.2604 50.7679 31.9359 51.488 29.088 51.488V53.488ZM37.3082 50.9927C39.615 49.3151 41.2618 46.9208 42.2767 43.8762L40.3793 43.2438C39.4742 45.9592 38.049 47.9809 36.1318 49.3753L37.3082 50.9927ZM41.328 42.56H25.704V44.56H41.328V42.56ZM26.704 43.56V34.488H24.704V43.56H26.704ZM25.704 35.488H52.488V33.488H25.704V35.488ZM51.488 34.488V45.936H53.488V34.488H51.488ZM51.5294 45.6514C50.659 48.5831 49.1679 51.3193 47.0409 53.8624L48.5751 55.1456C50.8641 52.4087 52.493 49.4329 53.4466 46.2206L51.5294 45.6514ZM47.034 53.8708C44.9742 56.3883 42.3333 58.4377 39.0911 60.0125L39.9649 61.8115C43.4427 60.1223 46.3218 57.8997 48.582 55.1372L47.034 53.8708ZM39.0911 60.0125C35.8841 61.5702 32.2445 62.36 28.152 62.36V64.36C32.5075 64.36 36.4519 63.5178 39.9649 61.8115L39.0911 60.0125ZM28.152 62.36C23.309 62.36 19.0137 61.3137 15.2411 59.2433L14.2789 60.9967C18.3783 63.2463 23.011 64.36 28.152 64.36V62.36ZM15.2538 59.2504C11.5227 57.1315 8.60449 54.2133 6.48556 50.4822L4.74644 51.4698C7.04351 55.5147 10.2213 58.6925 14.2662 60.9896L15.2538 59.2504ZM6.49016 50.4904C4.42239 46.7684 3.376 42.4992 3.376 37.656H1.376C1.376 42.7968 2.48961 47.4076 4.74184 51.4616L6.49016 50.4904ZM3.376 37.656C3.376 32.8128 4.42239 28.5436 6.49016 24.8216L4.74184 23.8504C2.48961 27.9044 1.376 32.5152 1.376 37.656H3.376ZM6.48814 24.8253C8.60687 21.0484 11.5222 18.1348 15.2456 16.0662L14.2744 14.3178C10.2219 16.5692 7.04113 19.7516 4.74386 23.8467L6.48814 24.8253ZM15.2538 16.0616C18.9743 13.9487 23.2405 12.88 28.08 12.88V10.88C22.9355 10.88 18.3217 12.0193 14.2662 14.3224L15.2538 16.0616ZM28.08 12.88C33.9621 12.88 38.8374 14.3015 42.7655 17.0876L43.9225 15.4563C39.5946 12.3865 34.2939 10.88 28.08 10.88V12.88ZM42.7699 17.0908C46.741 19.8751 49.3684 23.7245 50.656 28.691L52.592 28.189C51.1916 22.7875 48.299 18.5249 43.9181 15.4532L42.7699 17.0908ZM51.624 27.44H38.016V29.44H51.624V27.44ZM67.6598 61.056L67.1856 61.9365L67.1912 61.9395L67.6598 61.056ZM60.2438 53.856L59.3746 54.3507L59.3805 54.3607L60.2438 53.856ZM60.3158 32.04L61.1791 32.5447L61.1824 32.539L60.3158 32.04ZM67.8038 24.768L68.2723 25.6515L68.2723 25.6515L67.8038 24.768ZM89.1158 24.768L88.6472 25.6515L88.6473 25.6515L89.1158 24.768ZM96.6038 32.04L95.7371 32.539L95.7405 32.5447L96.6038 32.04ZM96.5318 53.856L95.6708 53.3473L95.6685 53.3513L96.5318 53.856ZM88.9718 61.056L88.5087 60.1696L88.5032 60.1725L88.9718 61.056ZM84.2918 50.328L83.5748 49.6309L83.5697 49.6361L83.5647 49.6414L84.2918 50.328ZM84.3638 35.496L83.6266 36.1717L83.6316 36.1772L83.6367 36.1826L84.3638 35.496ZM72.4838 35.496L73.2114 36.1821L73.2209 36.1717L72.4838 35.496ZM72.4118 50.328L71.6643 50.9924L71.6694 50.9981L71.6746 51.0037L72.4118 50.328ZM78.3158 62.576C74.5268 62.576 71.1382 61.7687 68.1283 60.1725L67.1912 61.9395C70.5173 63.7033 74.2327 64.576 78.3158 64.576V62.576ZM68.1339 60.1755C65.179 58.5845 62.8403 56.316 61.107 53.3513L59.3805 54.3607C61.2953 57.636 63.9005 60.1675 67.1857 61.9365L68.1339 60.1755ZM61.1128 53.3613C59.4357 50.4151 58.5798 46.9431 58.5798 42.912H56.5798C56.5798 47.2329 57.4998 51.0569 59.3747 54.3507L61.1128 53.3613ZM58.5798 42.912C58.5798 38.9357 59.4567 35.4908 61.179 32.5447L59.4525 31.5353C57.5268 34.8292 56.5798 38.6323 56.5798 42.912H58.5798ZM61.1824 32.539C62.9144 29.5307 65.2739 27.2415 68.2723 25.6515L67.3352 23.8845C63.9976 25.6545 61.3651 28.2133 59.4491 31.541L61.1824 32.539ZM68.2723 25.6515C71.2822 24.0553 74.6708 23.248 78.4598 23.248V21.248C74.3767 21.248 70.6613 22.1207 67.3352 23.8845L68.2723 25.6515ZM78.4598 23.248C82.2487 23.248 85.6373 24.0553 88.6472 25.6515L89.5843 23.8845C86.2582 22.1207 82.5428 21.248 78.4598 21.248V23.248ZM88.6473 25.6515C91.6456 27.2415 94.0051 29.5307 95.7371 32.539L97.4704 31.541C95.5544 28.2133 92.9219 25.6545 89.5843 23.8845L88.6473 25.6515ZM95.7405 32.5447C97.4628 35.4908 98.3398 38.9357 98.3398 42.912H100.34C100.34 38.6323 99.3927 34.8292 97.4671 31.5353L95.7405 32.5447ZM98.3398 42.912C98.3398 46.8833 97.4411 50.3515 95.6708 53.3473L97.3927 54.3647C99.3664 51.0245 100.34 47.1967 100.34 42.912H98.3398ZM95.6685 53.3513C93.9397 56.3083 91.5588 58.5763 88.5087 60.1697L89.4348 61.9423C92.8167 60.1757 95.4758 57.6437 97.395 54.3607L95.6685 53.3513ZM88.5032 60.1725C85.4933 61.7687 82.1047 62.576 78.3158 62.576V64.576C82.3988 64.576 86.1142 63.7033 89.4403 61.9395L88.5032 60.1725ZM78.3158 53.92C80.9462 53.92 83.2001 52.9402 85.0188 51.0146L83.5647 49.6414C82.1194 51.1718 80.3893 51.92 78.3158 51.92V53.92ZM85.0087 51.0251C86.9243 49.0548 87.8118 46.2988 87.8118 42.912H85.8118C85.8118 45.9572 85.0192 48.1452 83.5748 49.6309L85.0087 51.0251ZM87.8118 42.912C87.8118 39.5325 86.9524 36.7805 85.0908 34.8094L83.6367 36.1826C85.0392 37.6675 85.8118 39.8595 85.8118 42.912H87.8118ZM85.1009 34.8203C83.3268 32.8849 81.091 31.904 78.4598 31.904V33.904C80.5325 33.904 82.2327 34.6511 83.6266 36.1717L85.1009 34.8203ZM78.4598 31.904C75.787 31.904 73.5251 32.8801 71.7466 34.8203L73.2209 36.1717C74.6104 34.6559 76.3325 33.904 78.4598 33.904V31.904ZM71.7562 34.81C69.9361 36.7404 69.1078 39.4987 69.1078 42.912H71.1078C71.1078 39.7973 71.8634 37.6116 73.2113 36.182L71.7562 34.81ZM69.1078 42.912C69.1078 46.2772 69.9116 49.0206 71.6643 50.9924L73.1592 49.6636C71.8399 48.1794 71.1078 45.9788 71.1078 42.912H69.1078ZM71.6746 51.0037C73.4487 52.9391 75.6845 53.92 78.3158 53.92V51.92C76.243 51.92 74.5428 51.1729 73.1489 49.6523L71.6746 51.0037Z" fill="white" mask="url(#path-1-outside-1_242_163)"/>
<path d="M35.064 111.08C37.992 111.704 40.344 113.168 42.12 115.472C43.896 117.728 44.784 120.32 44.784 123.248C44.784 127.472 43.296 130.832 40.32 133.328C37.392 135.776 33.288 137 28.008 137H4.464V86.456H27.216C32.352 86.456 36.36 87.632 39.24 89.984C42.168 92.336 43.632 95.528 43.632 99.56C43.632 102.536 42.84 105.008 41.256 106.976C39.72 108.944 37.656 110.312 35.064 111.08ZM16.776 106.904H24.84C26.856 106.904 28.392 106.472 29.448 105.608C30.552 104.696 31.104 103.376 31.104 101.648C31.104 99.92 30.552 98.6 29.448 97.688C28.392 96.776 26.856 96.32 24.84 96.32H16.776V106.904ZM25.848 127.064C27.912 127.064 29.496 126.608 30.6 125.696C31.752 124.736 32.328 123.368 32.328 121.592C32.328 119.816 31.728 118.424 30.528 117.416C29.376 116.408 27.768 115.904 25.704 115.904H16.776V127.064H25.848ZM90.5169 116.264C90.5169 117.416 90.4449 118.616 90.3009 119.864H62.4369C62.6289 122.36 63.4209 124.28 64.8129 125.624C66.2529 126.92 68.0049 127.568 70.0689 127.568C73.1409 127.568 75.2769 126.272 76.4769 123.68H89.5809C88.9089 126.32 87.6849 128.696 85.9089 130.808C84.1809 132.92 81.9969 134.576 79.3569 135.776C76.7169 136.976 73.7649 137.576 70.5009 137.576C66.5649 137.576 63.0609 136.736 59.9889 135.056C56.9169 133.376 54.5169 130.976 52.7889 127.856C51.0609 124.736 50.1969 121.088 50.1969 116.912C50.1969 112.736 51.0369 109.088 52.7169 105.968C54.4449 102.848 56.8449 100.448 59.9169 98.768C62.9889 97.088 66.5169 96.248 70.5009 96.248C74.3889 96.248 77.8449 97.064 80.8689 98.696C83.8929 100.328 86.2449 102.656 87.9249 105.68C89.6529 108.704 90.5169 112.232 90.5169 116.264ZM77.9169 113.024C77.9169 110.912 77.1969 109.232 75.7569 107.984C74.3169 106.736 72.5169 106.112 70.3569 106.112C68.2929 106.112 66.5409 106.712 65.1009 107.912C63.7089 109.112 62.8449 110.816 62.5089 113.024H77.9169ZM138.772 96.824L113.572 156.08H100.324L109.54 135.632L93.1961 96.824H106.948L116.236 121.952L125.452 96.824H138.772ZM162.232 137.576C158.296 137.576 154.744 136.736 151.576 135.056C148.456 133.376 145.984 130.976 144.16 127.856C142.384 124.736 141.496 121.088 141.496 116.912C141.496 112.784 142.408 109.16 144.232 106.04C146.056 102.872 148.552 100.448 151.72 98.768C154.888 97.088 158.44 96.248 162.376 96.248C166.312 96.248 169.864 97.088 173.032 98.768C176.2 100.448 178.696 102.872 180.52 106.04C182.344 109.16 183.256 112.784 183.256 116.912C183.256 121.04 182.32 124.688 180.448 127.856C178.624 130.976 176.104 133.376 172.888 135.056C169.72 136.736 166.168 137.576 162.232 137.576ZM162.232 126.92C164.584 126.92 166.576 126.056 168.208 124.328C169.888 122.6 170.728 120.128 170.728 116.912C170.728 113.696 169.912 111.224 168.28 109.496C166.696 107.768 164.728 106.904 162.376 106.904C159.976 106.904 157.984 107.768 156.4 109.496C154.816 111.176 154.024 113.648 154.024 116.912C154.024 120.128 154.792 122.6 156.328 124.328C157.912 126.056 159.88 126.92 162.232 126.92ZM214.988 96.392C219.692 96.392 223.436 97.928 226.22 101C229.052 104.024 230.468 108.2 230.468 113.528V137H218.228V115.184C218.228 112.496 217.532 110.408 216.14 108.92C214.748 107.432 212.876 106.688 210.524 106.688C208.172 106.688 206.3 107.432 204.908 108.92C203.516 110.408 202.82 112.496 202.82 115.184V137H190.508V96.824H202.82V102.152C204.068 100.376 205.748 98.984 207.86 97.976C209.972 96.92 212.348 96.392 214.988 96.392ZM237.296 116.84C237.296 112.712 238.064 109.088 239.6 105.968C241.184 102.848 243.32 100.448 246.008 98.768C248.696 97.088 251.696 96.248 255.008 96.248C257.648 96.248 260.048 96.8 262.208 97.904C264.416 99.008 266.144 100.496 267.392 102.368V83.72H279.704V137H267.392V131.24C266.24 133.16 264.584 134.696 262.424 135.848C260.312 137 257.84 137.576 255.008 137.576C251.696 137.576 248.696 136.736 246.008 135.056C243.32 133.328 241.184 130.904 239.6 127.784C238.064 124.616 237.296 120.968 237.296 116.84ZM267.392 116.912C267.392 113.84 266.528 111.416 264.8 109.64C263.12 107.864 261.056 106.976 258.608 106.976C256.16 106.976 254.072 107.864 252.344 109.64C250.664 111.368 249.824 113.768 249.824 116.84C249.824 119.912 250.664 122.36 252.344 124.184C254.072 125.96 256.16 126.848 258.608 126.848C261.056 126.848 263.12 125.96 264.8 124.184C266.528 122.408 267.392 119.984 267.392 116.912Z" fill="url(#paint0_radial_242_163)"/>
<defs>
<radialGradient id="paint0_radial_242_163" cx="0" cy="0" r="1" gradientUnits="userSpaceOnUse" gradientTransform="translate(253.318 98.8366) rotate(104.671) scale(61.0341 222.038)">
<stop offset="0.00887753" stop-color="#DEF9FA"/>
<stop offset="0.1723" stop-color="#BEF3F5"/>
<stop offset="0.4204" stop-color="#9DEDF0"/>
<stop offset="0.5512" stop-color="#7DE7EB"/>
<stop offset="0.7154" stop-color="#5CE1E6"/>
<stop offset="1" stop-color="#33BBCF"/>
</radialGradient>
</defs>
</svg>
