<svg width="350" height="350" viewBox="0 0 350 350" fill="none" xmlns="http://www.w3.org/2000/svg">
<circle cx="175" cy="175" r="175" fill="#B4DAFF" fill-opacity="0.35"/>
<path d="M231.583 166.917H118.417C109.488 166.917 102.25 174.155 102.25 183.083V239.667C102.25 248.595 109.488 255.833 118.417 255.833H231.583C240.512 255.833 247.75 248.595 247.75 239.667V183.083C247.75 174.155 240.512 166.917 231.583 166.917Z" stroke="#1485FD" stroke-width="4" stroke-linecap="round" stroke-linejoin="round"/>
<path d="M134.583 166.917V134.583C134.583 123.864 138.841 113.584 146.421 106.005C154 98.4249 164.281 94.1667 175 94.1667C185.719 94.1667 195.999 98.4249 203.579 106.005C211.158 113.584 215.416 123.864 215.416 134.583V166.917" stroke="#1485FD" stroke-width="4" stroke-linecap="round" stroke-linejoin="round"/>
</svg>
