<svg width="400" height="403" viewBox="0 0 400 403" fill="none" xmlns="http://www.w3.org/2000/svg">
<path d="M200 400C310.457 400 400 310.457 400 200C400 89.5431 310.457 0 200 0C89.5431 0 0 89.5431 0 200C0 310.457 89.5431 400 200 400Z" fill="url(#paint0_linear_338_3459)"/>
<g filter="url(#filter0_d_338_3459)">
<mask id="mask0_338_3459" style="mask-type:alpha" maskUnits="userSpaceOnUse" x="0" y="0" width="400" height="400">
<path d="M200 400C310.457 400 400 310.457 400 200C400 89.5431 310.457 0 200 0C89.5431 0 0 89.5431 0 200C0 310.457 89.5431 400 200 400Z" fill="url(#paint1_linear_338_3459)"/>
</mask>
<g mask="url(#mask0_338_3459)">
<path d="M314.667 114.667H85.3333C77.9695 114.667 72 120.636 72 128V408C72 415.364 77.9695 421.333 85.3333 421.333H314.667C322.03 421.333 328 415.364 328 408V128C328 120.636 322.03 114.667 314.667 114.667Z" fill="white"/>
</g>
</g>
<path d="M175.999 141.333H106.666C102.248 141.333 98.666 144.915 98.666 149.333C98.666 153.752 102.248 157.333 106.666 157.333H175.999C180.418 157.333 183.999 153.752 183.999 149.333C183.999 144.915 180.418 141.333 175.999 141.333Z" fill="#E1EBFA"/>
<path d="M175.999 253.333H106.666C102.248 253.333 98.666 256.915 98.666 261.333C98.666 265.752 102.248 269.333 106.666 269.333H175.999C180.418 269.333 183.999 265.752 183.999 261.333C183.999 256.915 180.418 253.333 175.999 253.333Z" fill="#E1EBFA"/>
<path d="M288.001 181.333H112.001C106.11 181.333 101.334 186.109 101.334 192V218.667C101.334 224.558 106.11 229.333 112.001 229.333H288.001C293.892 229.333 298.667 224.558 298.667 218.667V192C298.667 186.109 293.892 181.333 288.001 181.333Z" stroke="#1485FD" stroke-width="2"/>
<path d="M287.999 290.667H111.999C104.636 290.667 98.666 296.636 98.666 304V325.333C98.666 332.697 104.636 338.667 111.999 338.667H287.999C295.363 338.667 301.333 332.697 301.333 325.333V304C301.333 296.636 295.363 290.667 287.999 290.667Z" fill="#DFEAFB"/>
<path d="M141.335 85.3333C147.226 85.3333 152.001 80.5577 152.001 74.6667C152.001 68.7756 147.226 64 141.335 64C135.444 64 130.668 68.7756 130.668 74.6667C130.668 80.5577 135.444 85.3333 141.335 85.3333Z" fill="white"/>
<path d="M200.001 85.3333C205.892 85.3333 210.667 80.5577 210.667 74.6667C210.667 68.7756 205.892 64 200.001 64C194.11 64 189.334 68.7756 189.334 74.6667C189.334 80.5577 194.11 85.3333 200.001 85.3333Z" fill="#1485FD"/>
<path d="M258.669 85.3333C264.56 85.3333 269.335 80.5577 269.335 74.6667C269.335 68.7756 264.56 64 258.669 64C252.778 64 248.002 68.7756 248.002 74.6667C248.002 80.5577 252.778 85.3333 258.669 85.3333Z" fill="white"/>
<path d="M229.333 234.667C236.697 234.667 242.667 228.697 242.667 221.333C242.667 213.97 236.697 208 229.333 208C221.97 208 216 213.97 216 221.333C216 228.697 221.97 234.667 229.333 234.667Z" fill="#DFEAFB"/>
<path d="M239.752 278.32C237.619 278.32 235.627 278.32 233.814 278.205C231.58 278.054 229.431 277.29 227.604 275.996C225.777 274.703 224.341 272.931 223.456 270.874L212.206 248.64C211.38 247.679 210.968 246.431 211.059 245.168C211.15 243.905 211.737 242.728 212.691 241.896C213.473 241.267 214.448 240.929 215.451 240.938C216.189 240.96 216.914 241.141 217.576 241.47C218.237 241.799 218.82 242.267 219.283 242.842L224.392 249.816L224.47 249.906V223.413C224.47 222.099 224.992 220.838 225.921 219.909C226.851 218.979 228.111 218.457 229.426 218.457C230.74 218.457 232.001 218.979 232.93 219.909C233.859 220.838 234.382 222.099 234.382 223.413V240.746C234.324 240.109 234.4 239.466 234.605 238.859C234.809 238.252 235.138 237.694 235.57 237.222C236.002 236.749 236.528 236.371 237.114 236.113C237.7 235.855 238.333 235.721 238.974 235.721C239.614 235.721 240.247 235.855 240.833 236.113C241.419 236.371 241.945 236.749 242.377 237.222C242.809 237.694 243.138 238.252 243.343 238.859C243.547 239.466 243.623 240.109 243.566 240.746V244.36C243.508 243.722 243.584 243.079 243.789 242.472C243.993 241.865 244.322 241.308 244.754 240.835C245.186 240.362 245.712 239.985 246.298 239.726C246.884 239.468 247.517 239.335 248.158 239.335C248.798 239.335 249.431 239.468 250.017 239.726C250.603 239.985 251.129 240.362 251.561 240.835C251.993 241.308 252.322 241.865 252.527 242.472C252.731 243.079 252.807 243.722 252.75 244.36V247.144C252.692 246.506 252.768 245.863 252.973 245.256C253.177 244.649 253.506 244.092 253.938 243.619C254.37 243.146 254.896 242.769 255.482 242.51C256.068 242.252 256.701 242.119 257.342 242.119C257.982 242.119 258.615 242.252 259.201 242.51C259.787 242.769 260.313 243.146 260.745 243.619C261.177 244.092 261.506 244.649 261.711 245.256C261.915 245.863 261.991 246.506 261.934 247.144V264.042C261.843 269.24 259.494 278.002 251.23 278.002C250.63 278.029 245.547 278.322 239.763 278.322L239.752 278.32Z" fill="#1485FD" stroke="white"/>
<defs>
<filter id="filter0_d_338_3459" x="66" y="105.667" width="268" height="297.333" filterUnits="userSpaceOnUse" color-interpolation-filters="sRGB">
<feFlood flood-opacity="0" result="BackgroundImageFix"/>
<feColorMatrix in="SourceAlpha" type="matrix" values="0 0 0 0 0 0 0 0 0 0 0 0 0 0 0 0 0 0 127 0" result="hardAlpha"/>
<feOffset dy="-3"/>
<feGaussianBlur stdDeviation="3"/>
<feColorMatrix type="matrix" values="0 0 0 0 0.788235 0 0 0 0 0.803922 0 0 0 0 0.85098 0 0 0 0.349 0"/>
<feBlend mode="normal" in2="BackgroundImageFix" result="effect1_dropShadow_338_3459"/>
<feBlend mode="normal" in="SourceGraphic" in2="effect1_dropShadow_338_3459" result="shape"/>
</filter>
<linearGradient id="paint0_linear_338_3459" x1="200" y1="0" x2="200" y2="400" gradientUnits="userSpaceOnUse">
<stop stop-color="#E3ECFA"/>
<stop offset="1" stop-color="#DAE7FF"/>
</linearGradient>
<linearGradient id="paint1_linear_338_3459" x1="200" y1="0" x2="200" y2="400" gradientUnits="userSpaceOnUse">
<stop stop-color="#E3ECFA"/>
<stop offset="1" stop-color="#DAE7FF"/>
</linearGradient>
</defs>
</svg>
