<svg width="352" height="75" viewBox="0 0 352 75" fill="none" xmlns="http://www.w3.org/2000/svg">
<path d="M338.96 65L326.88 46.2L315.92 65H303.28L320.88 36.84L303.04 9.16H315.92L328 27.88L338.88 9.16H351.52L334 37.24L351.84 65H338.96Z" fill="#D4D4D4" fill-opacity="0.3"/>
<path d="M210.95 19.9V26.75H196.65V34.15H207.35V40.8H196.65V55H188.1V19.9H210.95ZM232.044 55.35C228.744 55.35 225.71 54.5833 222.944 53.05C220.21 51.5167 218.027 49.3833 216.394 46.65C214.794 43.8833 213.994 40.7833 213.994 37.35C213.994 33.9167 214.794 30.8333 216.394 28.1C218.027 25.3667 220.21 23.2333 222.944 21.7C225.71 20.1667 228.744 19.4 232.044 19.4C235.344 19.4 238.36 20.1667 241.094 21.7C243.86 23.2333 246.027 25.3667 247.594 28.1C249.194 30.8333 249.994 33.9167 249.994 37.35C249.994 40.7833 249.194 43.8833 247.594 46.65C245.994 49.3833 243.827 51.5167 241.094 53.05C238.36 54.5833 235.344 55.35 232.044 55.35ZM232.044 47.55C234.844 47.55 237.077 46.6167 238.744 44.75C240.444 42.8833 241.294 40.4167 241.294 37.35C241.294 34.25 240.444 31.7833 238.744 29.95C237.077 28.0833 234.844 27.15 232.044 27.15C229.21 27.15 226.944 28.0667 225.244 29.9C223.577 31.7333 222.744 34.2167 222.744 37.35C222.744 40.45 223.577 42.9333 225.244 44.8C226.944 46.6333 229.21 47.55 232.044 47.55ZM272.65 55L265.35 41.75H263.3V55H254.75V19.9H269.1C271.867 19.9 274.217 20.3833 276.15 21.35C278.117 22.3167 279.584 23.65 280.55 25.35C281.517 27.0167 282 28.8833 282 30.95C282 33.2833 281.334 35.3667 280 37.2C278.7 39.0333 276.767 40.3333 274.2 41.1L282.3 55H272.65ZM263.3 35.7H268.6C270.167 35.7 271.334 35.3167 272.1 34.55C272.9 33.7833 273.3 32.7 273.3 31.3C273.3 29.9667 272.9 28.9167 272.1 28.15C271.334 27.3833 270.167 27 268.6 27H263.3V35.7ZM327.118 19.9V55H318.568V33.95L310.718 55H303.818L295.918 33.9V55H287.368V19.9H297.468L307.318 44.2L317.068 19.9H327.118Z" fill="white"/>
<path d="M15.8 55.35C13.2333 55.35 10.9333 54.9333 8.9 54.1C6.86667 53.2667 5.23333 52.0333 4 50.4C2.8 48.7667 2.16667 46.8 2.1 44.5H11.2C11.3333 45.8 11.7833 46.8 12.55 47.5C13.3167 48.1667 14.3167 48.5 15.55 48.5C16.8167 48.5 17.8167 48.2167 18.55 47.65C19.2833 47.05 19.65 46.2333 19.65 45.2C19.65 44.3333 19.35 43.6167 18.75 43.05C18.1833 42.4833 17.4667 42.0167 16.6 41.65C15.7667 41.2833 14.5667 40.8667 13 40.4C10.7333 39.7 8.88333 39 7.45 38.3C6.01667 37.6 4.78333 36.5667 3.75 35.2C2.71667 33.8333 2.2 32.05 2.2 29.85C2.2 26.5833 3.38333 24.0333 5.75 22.2C8.11667 20.3333 11.2 19.4 15 19.4C18.8667 19.4 21.9833 20.3333 24.35 22.2C26.7167 24.0333 27.9833 26.6 28.15 29.9H18.9C18.8333 28.7667 18.4167 27.8833 17.65 27.25C16.8833 26.5833 15.9 26.25 14.7 26.25C13.6667 26.25 12.8333 26.5333 12.2 27.1C11.5667 27.6333 11.25 28.4167 11.25 29.45C11.25 30.5833 11.7833 31.4667 12.85 32.1C13.9167 32.7333 15.5833 33.4167 17.85 34.15C20.1167 34.9167 21.95 35.65 23.35 36.35C24.7833 37.05 26.0167 38.0667 27.05 39.4C28.0833 40.7333 28.6 42.45 28.6 44.55C28.6 46.55 28.0833 48.3667 27.05 50C26.05 51.6333 24.5833 52.9333 22.65 53.9C20.7167 54.8667 18.4333 55.35 15.8 55.35ZM73.6117 19.9V55H65.0617V33.95L57.2117 55H50.3117L42.4117 33.9V55H33.8617V19.9H43.9617L53.8117 44.2L63.5617 19.9H73.6117ZM101.61 48.8H88.5102L86.4102 55H77.4602L90.1602 19.9H100.06L112.76 55H103.71L101.61 48.8ZM99.4102 42.2L95.0602 29.35L90.7602 42.2H99.4102ZM134.525 55L127.225 41.75H125.175V55H116.625V19.9H130.975C133.742 19.9 136.092 20.3833 138.025 21.35C139.992 22.3167 141.459 23.65 142.425 25.35C143.392 27.0167 143.875 28.8833 143.875 30.95C143.875 33.2833 143.209 35.3667 141.875 37.2C140.575 39.0333 138.642 40.3333 136.075 41.1L144.175 55H134.525ZM125.175 35.7H130.475C132.042 35.7 133.209 35.3167 133.975 34.55C134.775 33.7833 135.175 32.7 135.175 31.3C135.175 29.9667 134.775 28.9167 133.975 28.15C133.209 27.3833 132.042 27 130.475 27H125.175V35.7ZM174.493 19.9V26.75H165.193V55H156.643V26.75H147.343V19.9H174.493Z" fill="#8777E0"/>
</svg>
