<svg width="423" height="75" viewBox="0 0 423 75" fill="none" xmlns="http://www.w3.org/2000/svg">
<path d="M11.6667 9H23.3333V11.3333H11.6667C6.51201 11.3333 2.33333 15.512 2.33333 20.6667V39.3333H0V20.6667C0 14.2233 5.22334 9 11.6667 9Z" fill="#5CE1E6"/>
<path d="M30.3333 65H44.3333C50.7767 65 56 59.7767 56 53.3333V37H53.6667V53.3333C53.6667 58.488 49.488 62.6667 44.3333 62.6667H30.3333V65Z" fill="#5CE1E6"/>
<path d="M29.3533 51.294C27.3093 51.294 25.4613 50.944 23.8093 50.244C22.1853 49.544 20.8973 48.536 19.9453 47.22C18.9933 45.904 18.5033 44.35 18.4753 42.558H24.7753C24.8593 43.762 25.2793 44.714 26.0353 45.414C26.8193 46.114 27.8833 46.464 29.2273 46.464C30.5993 46.464 31.6773 46.142 32.4613 45.498C33.2453 44.826 33.6373 43.958 33.6373 42.894C33.6373 42.026 33.3713 41.312 32.8393 40.752C32.3073 40.192 31.6353 39.758 30.8233 39.45C30.0393 39.114 28.9473 38.75 27.5473 38.358C25.6433 37.798 24.0893 37.252 22.8853 36.72C21.7093 36.16 20.6873 35.334 19.8193 34.242C18.9793 33.122 18.5593 31.638 18.5593 29.79C18.5593 28.054 18.9933 26.542 19.8613 25.254C20.7293 23.966 21.9473 22.986 23.5153 22.314C25.0833 21.614 26.8753 21.264 28.8913 21.264C31.9153 21.264 34.3653 22.006 36.2413 23.49C38.1453 24.946 39.1953 26.99 39.3913 29.622H32.9233C32.8673 28.614 32.4333 27.788 31.6213 27.144C30.8373 26.472 29.7873 26.136 28.4713 26.136C27.3233 26.136 26.3993 26.43 25.6993 27.018C25.0273 27.606 24.6913 28.46 24.6913 29.58C24.6913 30.364 24.9433 31.022 25.4473 31.554C25.9793 32.058 26.6233 32.478 27.3793 32.814C28.1633 33.122 29.2553 33.486 30.6553 33.906C32.5593 34.466 34.1133 35.026 35.3173 35.586C36.5213 36.146 37.5573 36.986 38.4253 38.106C39.2933 39.226 39.7273 40.696 39.7273 42.516C39.7273 44.084 39.3213 45.54 38.5093 46.884C37.6973 48.228 36.5073 49.306 34.9393 50.118C33.3713 50.902 31.5093 51.294 29.3533 51.294Z" fill="#5CE1E6"/>
<path d="M409.96 65L397.88 46.2L386.92 65H374.28L391.88 36.84L374.04 9.16H386.92L399 27.88L409.88 9.16H422.52L405 37.24L422.84 65H409.96Z" fill="white" fill-opacity="0.2"/>
<mask id="path-3-outside-1_219_2344" maskUnits="userSpaceOnUse" x="258" y="18" width="142" height="39" fill="black">
<rect fill="white" x="258" y="18" width="142" height="39"/>
<path d="M281.95 19.9V26.75H267.65V34.15H278.35V40.8H267.65V55H259.1V19.9H281.95ZM303.044 55.35C299.744 55.35 296.71 54.5833 293.944 53.05C291.21 51.5167 289.027 49.3833 287.394 46.65C285.794 43.8833 284.994 40.7833 284.994 37.35C284.994 33.9167 285.794 30.8333 287.394 28.1C289.027 25.3667 291.21 23.2333 293.944 21.7C296.71 20.1667 299.744 19.4 303.044 19.4C306.344 19.4 309.36 20.1667 312.094 21.7C314.86 23.2333 317.027 25.3667 318.594 28.1C320.194 30.8333 320.994 33.9167 320.994 37.35C320.994 40.7833 320.194 43.8833 318.594 46.65C316.994 49.3833 314.827 51.5167 312.094 53.05C309.36 54.5833 306.344 55.35 303.044 55.35ZM303.044 47.55C305.844 47.55 308.077 46.6167 309.744 44.75C311.444 42.8833 312.294 40.4167 312.294 37.35C312.294 34.25 311.444 31.7833 309.744 29.95C308.077 28.0833 305.844 27.15 303.044 27.15C300.21 27.15 297.944 28.0667 296.244 29.9C294.577 31.7333 293.744 34.2167 293.744 37.35C293.744 40.45 294.577 42.9333 296.244 44.8C297.944 46.6333 300.21 47.55 303.044 47.55ZM343.65 55L336.35 41.75H334.3V55H325.75V19.9H340.1C342.867 19.9 345.217 20.3833 347.15 21.35C349.117 22.3167 350.584 23.65 351.55 25.35C352.517 27.0167 353 28.8833 353 30.95C353 33.2833 352.334 35.3667 351 37.2C349.7 39.0333 347.767 40.3333 345.2 41.1L353.3 55H343.65ZM334.3 35.7H339.6C341.167 35.7 342.334 35.3167 343.1 34.55C343.9 33.7833 344.3 32.7 344.3 31.3C344.3 29.9667 343.9 28.9167 343.1 28.15C342.334 27.3833 341.167 27 339.6 27H334.3V35.7ZM398.118 19.9V55H389.568V33.95L381.718 55H374.818L366.918 33.9V55H358.368V19.9H368.468L378.318 44.2L388.068 19.9H398.118Z"/>
</mask>
<path d="M281.95 19.9V26.75H267.65V34.15H278.35V40.8H267.65V55H259.1V19.9H281.95ZM303.044 55.35C299.744 55.35 296.71 54.5833 293.944 53.05C291.21 51.5167 289.027 49.3833 287.394 46.65C285.794 43.8833 284.994 40.7833 284.994 37.35C284.994 33.9167 285.794 30.8333 287.394 28.1C289.027 25.3667 291.21 23.2333 293.944 21.7C296.71 20.1667 299.744 19.4 303.044 19.4C306.344 19.4 309.36 20.1667 312.094 21.7C314.86 23.2333 317.027 25.3667 318.594 28.1C320.194 30.8333 320.994 33.9167 320.994 37.35C320.994 40.7833 320.194 43.8833 318.594 46.65C316.994 49.3833 314.827 51.5167 312.094 53.05C309.36 54.5833 306.344 55.35 303.044 55.35ZM303.044 47.55C305.844 47.55 308.077 46.6167 309.744 44.75C311.444 42.8833 312.294 40.4167 312.294 37.35C312.294 34.25 311.444 31.7833 309.744 29.95C308.077 28.0833 305.844 27.15 303.044 27.15C300.21 27.15 297.944 28.0667 296.244 29.9C294.577 31.7333 293.744 34.2167 293.744 37.35C293.744 40.45 294.577 42.9333 296.244 44.8C297.944 46.6333 300.21 47.55 303.044 47.55ZM343.65 55L336.35 41.75H334.3V55H325.75V19.9H340.1C342.867 19.9 345.217 20.3833 347.15 21.35C349.117 22.3167 350.584 23.65 351.55 25.35C352.517 27.0167 353 28.8833 353 30.95C353 33.2833 352.334 35.3667 351 37.2C349.7 39.0333 347.767 40.3333 345.2 41.1L353.3 55H343.65ZM334.3 35.7H339.6C341.167 35.7 342.334 35.3167 343.1 34.55C343.9 33.7833 344.3 32.7 344.3 31.3C344.3 29.9667 343.9 28.9167 343.1 28.15C342.334 27.3833 341.167 27 339.6 27H334.3V35.7ZM398.118 19.9V55H389.568V33.95L381.718 55H374.818L366.918 33.9V55H358.368V19.9H368.468L378.318 44.2L388.068 19.9H398.118Z" fill="black"/>
<path d="M281.95 19.9H282.95V18.9H281.95V19.9ZM281.95 26.75V27.75H282.95V26.75H281.95ZM267.65 26.75V25.75H266.65V26.75H267.65ZM267.65 34.15H266.65V35.15H267.65V34.15ZM278.35 34.15H279.35V33.15H278.35V34.15ZM278.35 40.8V41.8H279.35V40.8H278.35ZM267.65 40.8V39.8H266.65V40.8H267.65ZM267.65 55V56H268.65V55H267.65ZM259.1 55H258.1V56H259.1V55ZM259.1 19.9V18.9H258.1V19.9H259.1ZM280.95 19.9V26.75H282.95V19.9H280.95ZM281.95 25.75H267.65V27.75H281.95V25.75ZM266.65 26.75V34.15H268.65V26.75H266.65ZM267.65 35.15H278.35V33.15H267.65V35.15ZM277.35 34.15V40.8H279.35V34.15H277.35ZM278.35 39.8H267.65V41.8H278.35V39.8ZM266.65 40.8V55H268.65V40.8H266.65ZM267.65 54H259.1V56H267.65V54ZM260.1 55V19.9H258.1V55H260.1ZM259.1 20.9H281.95V18.9H259.1V20.9ZM293.944 53.05L293.454 53.9222L293.459 53.9247L293.944 53.05ZM287.394 46.65L286.528 47.1506L286.532 47.1568L286.535 47.163L287.394 46.65ZM287.394 28.1L286.535 27.587L286.531 27.5948L287.394 28.1ZM293.944 21.7L293.459 20.8253L293.454 20.8279L293.944 21.7ZM312.094 21.7L311.604 22.5722L311.609 22.5747L312.094 21.7ZM318.594 28.1L317.726 28.5973L317.731 28.6052L318.594 28.1ZM318.594 46.65L319.457 47.1552L319.459 47.1506L318.594 46.65ZM312.094 53.05L312.583 53.9221L312.583 53.9221L312.094 53.05ZM309.744 44.75L309.004 44.0766L308.998 44.084L309.744 44.75ZM309.744 29.95L308.998 30.616L309.004 30.623L309.01 30.6299L309.744 29.95ZM296.244 29.9L295.51 29.22L295.504 29.2273L296.244 29.9ZM296.244 44.8L295.498 45.466L295.504 45.473L295.51 45.4799L296.244 44.8ZM303.044 54.35C299.906 54.35 297.04 53.6229 294.428 52.1753L293.459 53.9247C296.381 55.5438 299.582 56.35 303.044 56.35V54.35ZM294.433 52.1779C291.855 50.7314 289.797 48.723 288.252 46.137L286.535 47.163C288.257 50.0437 290.566 52.3019 293.454 53.9221L294.433 52.1779ZM288.259 46.1494C286.754 43.5461 285.994 40.621 285.994 37.35H283.994C283.994 40.9456 284.834 44.2205 286.528 47.1506L288.259 46.1494ZM285.994 37.35C285.994 34.0788 286.754 31.1725 288.257 28.6052L286.531 27.5948C284.834 30.4942 283.994 33.7545 283.994 37.35H285.994ZM288.252 28.613C289.797 26.027 291.855 24.0186 294.433 22.5721L293.454 20.8279C290.566 22.4481 288.257 24.7063 286.535 27.587L288.252 28.613ZM294.428 22.5747C297.04 21.1271 299.906 20.4 303.044 20.4V18.4C299.582 18.4 296.381 19.2062 293.459 20.8253L294.428 22.5747ZM303.044 20.4C306.182 20.4 309.029 21.1271 311.605 22.5721L312.583 20.8279C309.692 19.2062 306.506 18.4 303.044 18.4V20.4ZM311.609 22.5747C314.217 24.0199 316.251 26.023 317.726 28.5973L319.461 27.6027C317.804 24.7103 315.504 22.4468 312.579 20.8253L311.609 22.5747ZM317.731 28.6052C319.234 31.1725 319.994 34.0788 319.994 37.35H321.994C321.994 33.7545 321.154 30.4942 319.457 27.5948L317.731 28.6052ZM319.994 37.35C319.994 40.6211 319.234 43.5462 317.728 46.1494L319.459 47.1506C321.154 44.2205 321.994 40.9456 321.994 37.35H319.994ZM317.731 46.1448C316.22 48.7265 314.181 50.7324 311.605 52.1779L312.583 53.9221C315.473 52.3009 317.768 50.0402 319.457 47.1552L317.731 46.1448ZM311.605 52.1779C309.029 53.6229 306.182 54.35 303.044 54.35V56.35C306.506 56.35 309.692 55.5438 312.583 53.9221L311.605 52.1779ZM303.044 48.55C306.091 48.55 308.61 47.5218 310.49 45.416L308.998 44.084C307.545 45.7116 305.597 46.55 303.044 46.55V48.55ZM310.483 45.4233C312.385 43.3348 313.294 40.6095 313.294 37.35H311.294C311.294 40.2238 310.502 42.4319 309.004 44.0767L310.483 45.4233ZM313.294 37.35C313.294 34.0612 312.387 31.33 310.477 29.2701L309.01 30.6299C310.5 32.2366 311.294 34.4388 311.294 37.35H313.294ZM310.49 29.284C308.61 27.1782 306.091 26.15 303.044 26.15V28.15C305.597 28.15 307.545 28.9884 308.998 30.616L310.49 29.284ZM303.044 26.15C299.973 26.15 297.426 27.1545 295.51 29.2201L296.977 30.5799C298.462 28.9788 300.448 28.15 303.044 28.15V26.15ZM295.504 29.2273C293.629 31.2897 292.744 34.0362 292.744 37.35H294.744C294.744 34.3972 295.525 32.177 296.984 30.5727L295.504 29.2273ZM292.744 37.35C292.744 40.6346 293.631 43.3751 295.498 45.466L296.99 44.134C295.523 42.4915 294.744 40.2654 294.744 37.35H292.744ZM295.51 45.4799C297.426 47.5455 299.973 48.55 303.044 48.55V46.55C300.448 46.55 298.462 45.7212 296.977 44.1201L295.51 45.4799ZM343.65 55L342.775 55.4826L343.06 56H343.65V55ZM336.35 41.75L337.226 41.2674L336.941 40.75H336.35V41.75ZM334.3 41.75V40.75H333.3V41.75H334.3ZM334.3 55V56H335.3V55H334.3ZM325.75 55H324.75V56H325.75V55ZM325.75 19.9V18.9H324.75V19.9H325.75ZM347.15 21.35L346.703 22.2444L346.709 22.2474L347.15 21.35ZM351.55 25.35L350.681 25.8443L350.685 25.8517L351.55 25.35ZM351 37.2L350.192 36.6118L350.185 36.6216L351 37.2ZM345.2 41.1L344.914 40.1418L343.697 40.5055L344.336 41.6035L345.2 41.1ZM353.3 55V56H355.041L354.164 54.4965L353.3 55ZM334.3 35.7H333.3V36.7H334.3V35.7ZM343.1 34.55L342.408 33.828L342.401 33.8354L342.393 33.8429L343.1 34.55ZM343.1 28.15L342.393 28.8571L342.401 28.8646L342.408 28.872L343.1 28.15ZM334.3 27V26H333.3V27H334.3ZM344.526 54.5174L337.226 41.2674L335.475 42.2326L342.775 55.4826L344.526 54.5174ZM336.35 40.75H334.3V42.75H336.35V40.75ZM333.3 41.75V55H335.3V41.75H333.3ZM334.3 54H325.75V56H334.3V54ZM326.75 55V19.9H324.75V55H326.75ZM325.75 20.9H340.1V18.9H325.75V20.9ZM340.1 20.9C342.754 20.9 344.942 21.3638 346.703 22.2444L347.598 20.4556C345.492 19.4028 342.98 18.9 340.1 18.9V20.9ZM346.709 22.2474C348.519 23.1368 349.825 24.3392 350.681 25.8443L352.42 24.8557C351.342 22.9608 349.716 21.4966 347.592 20.4525L346.709 22.2474ZM350.685 25.8517C351.557 27.3549 352 29.0463 352 30.95H354C354 28.7204 353.477 26.6784 352.415 24.8483L350.685 25.8517ZM352 30.95C352 33.0786 351.397 34.9547 350.192 36.6118L351.809 37.7882C353.271 35.7786 354 33.488 354 30.95H352ZM350.185 36.6216C349.037 38.2396 347.309 39.4264 344.914 40.1418L345.487 42.0582C348.225 41.2403 350.363 39.8271 351.816 37.7784L350.185 36.6216ZM344.336 41.6035L352.436 55.5035L354.164 54.4965L346.064 40.5965L344.336 41.6035ZM353.3 54H343.65V56H353.3V54ZM334.3 36.7H339.6V34.7H334.3V36.7ZM339.6 36.7C341.314 36.7 342.784 36.281 343.807 35.2571L342.393 33.8429C341.884 34.3523 341.02 34.7 339.6 34.7V36.7ZM343.792 35.272C344.838 34.2698 345.3 32.8965 345.3 31.3H343.3C343.3 32.5035 342.963 33.2968 342.408 33.828L343.792 35.272ZM345.3 31.3C345.3 29.7537 344.828 28.4209 343.792 27.428L342.408 28.872C342.972 29.4124 343.3 30.1796 343.3 31.3H345.3ZM343.807 27.4429C342.784 26.419 341.314 26 339.6 26V28C341.02 28 341.884 28.3477 342.393 28.8571L343.807 27.4429ZM339.6 26H334.3V28H339.6V26ZM333.3 27V35.7H335.3V27H333.3ZM398.118 19.9H399.118V18.9H398.118V19.9ZM398.118 55V56H399.118V55H398.118ZM389.568 55H388.568V56H389.568V55ZM389.568 33.95H390.568L388.631 33.6006L389.568 33.95ZM381.718 55V56H382.412L382.655 55.3494L381.718 55ZM374.818 55L373.881 55.3506L374.124 56H374.818V55ZM366.918 33.9L367.854 33.5494L365.918 33.9H366.918ZM366.918 55V56H367.918V55H366.918ZM358.368 55H357.368V56H358.368V55ZM358.368 19.9V18.9H357.368V19.9H358.368ZM368.468 19.9L369.394 19.5243L369.141 18.9H368.468V19.9ZM378.318 44.2L377.391 44.5757L378.322 46.8736L379.246 44.5724L378.318 44.2ZM388.068 19.9V18.9H387.391L387.139 19.5276L388.068 19.9ZM397.118 19.9V55H399.118V19.9H397.118ZM398.118 54H389.568V56H398.118V54ZM390.568 55V33.95H388.568V55H390.568ZM388.631 33.6006L380.781 54.6506L382.655 55.3494L390.505 34.2994L388.631 33.6006ZM381.718 54H374.818V56H381.718V54ZM375.754 54.6494L367.854 33.5494L365.981 34.2506L373.881 55.3506L375.754 54.6494ZM365.918 33.9V55H367.918V33.9H365.918ZM366.918 54H358.368V56H366.918V54ZM359.368 55V19.9H357.368V55H359.368ZM358.368 20.9H368.468V18.9H358.368V20.9ZM367.541 20.2757L377.391 44.5757L379.244 43.8243L369.394 19.5243L367.541 20.2757ZM379.246 44.5724L388.996 20.2724L387.139 19.5276L377.389 43.8276L379.246 44.5724ZM388.068 20.9H398.118V18.9H388.068V20.9Z" fill="white" mask="url(#path-3-outside-1_219_2344)"/>
<path d="M86.8 55.35C84.2333 55.35 81.9333 54.9333 79.9 54.1C77.8667 53.2667 76.2333 52.0333 75 50.4C73.8 48.7667 73.1667 46.8 73.1 44.5H82.2C82.3333 45.8 82.7833 46.8 83.55 47.5C84.3167 48.1667 85.3167 48.5 86.55 48.5C87.8167 48.5 88.8167 48.2167 89.55 47.65C90.2833 47.05 90.65 46.2333 90.65 45.2C90.65 44.3333 90.35 43.6167 89.75 43.05C89.1833 42.4833 88.4667 42.0167 87.6 41.65C86.7667 41.2833 85.5667 40.8667 84 40.4C81.7333 39.7 79.8833 39 78.45 38.3C77.0167 37.6 75.7833 36.5667 74.75 35.2C73.7167 33.8333 73.2 32.05 73.2 29.85C73.2 26.5833 74.3833 24.0333 76.75 22.2C79.1167 20.3333 82.2 19.4 86 19.4C89.8667 19.4 92.9833 20.3333 95.35 22.2C97.7167 24.0333 98.9833 26.6 99.15 29.9H89.9C89.8333 28.7667 89.4167 27.8833 88.65 27.25C87.8833 26.5833 86.9 26.25 85.7 26.25C84.6667 26.25 83.8333 26.5333 83.2 27.1C82.5667 27.6333 82.25 28.4167 82.25 29.45C82.25 30.5833 82.7833 31.4667 83.85 32.1C84.9167 32.7333 86.5833 33.4167 88.85 34.15C91.1167 34.9167 92.95 35.65 94.35 36.35C95.7833 37.05 97.0167 38.0667 98.05 39.4C99.0833 40.7333 99.6 42.45 99.6 44.55C99.6 46.55 99.0833 48.3667 98.05 50C97.05 51.6333 95.5833 52.9333 93.65 53.9C91.7167 54.8667 89.4333 55.35 86.8 55.35ZM144.612 19.9V55H136.062V33.95L128.212 55H121.312L113.412 33.9V55H104.862V19.9H114.962L124.812 44.2L134.562 19.9H144.612ZM172.61 48.8H159.51L157.41 55H148.46L161.16 19.9H171.06L183.76 55H174.71L172.61 48.8ZM170.41 42.2L166.06 29.35L161.76 42.2H170.41ZM205.525 55L198.225 41.75H196.175V55H187.625V19.9H201.975C204.742 19.9 207.092 20.3833 209.025 21.35C210.992 22.3167 212.459 23.65 213.425 25.35C214.392 27.0167 214.875 28.8833 214.875 30.95C214.875 33.2833 214.209 35.3667 212.875 37.2C211.575 39.0333 209.642 40.3333 207.075 41.1L215.175 55H205.525ZM196.175 35.7H201.475C203.042 35.7 204.209 35.3167 204.975 34.55C205.775 33.7833 206.175 32.7 206.175 31.3C206.175 29.9667 205.775 28.9167 204.975 28.15C204.209 27.3833 203.042 27 201.475 27H196.175V35.7ZM245.493 19.9V26.75H236.193V55H227.643V26.75H218.343V19.9H245.493Z" fill="#5CE1E6"/>
</svg>
