<svg width="352" height="75" viewBox="0 0 352 75" fill="none" xmlns="http://www.w3.org/2000/svg">
<path d="M338.96 65L326.88 46.2L315.92 65H303.28L320.88 36.84L303.04 9.16H315.92L328 27.88L338.88 9.16H351.52L334 37.24L351.84 65H338.96Z" fill="white" fill-opacity="0.2"/>
<mask id="path-2-outside-1_188_2174" maskUnits="userSpaceOnUse" x="187" y="18" width="142" height="39" fill="black">
<rect fill="white" x="187" y="18" width="142" height="39"/>
<path d="M210.95 19.9V26.75H196.65V34.15H207.35V40.8H196.65V55H188.1V19.9H210.95ZM232.044 55.35C228.744 55.35 225.71 54.5833 222.944 53.05C220.21 51.5167 218.027 49.3833 216.394 46.65C214.794 43.8833 213.994 40.7833 213.994 37.35C213.994 33.9167 214.794 30.8333 216.394 28.1C218.027 25.3667 220.21 23.2333 222.944 21.7C225.71 20.1667 228.744 19.4 232.044 19.4C235.344 19.4 238.36 20.1667 241.094 21.7C243.86 23.2333 246.027 25.3667 247.594 28.1C249.194 30.8333 249.994 33.9167 249.994 37.35C249.994 40.7833 249.194 43.8833 247.594 46.65C245.994 49.3833 243.827 51.5167 241.094 53.05C238.36 54.5833 235.344 55.35 232.044 55.35ZM232.044 47.55C234.844 47.55 237.077 46.6167 238.744 44.75C240.444 42.8833 241.294 40.4167 241.294 37.35C241.294 34.25 240.444 31.7833 238.744 29.95C237.077 28.0833 234.844 27.15 232.044 27.15C229.21 27.15 226.944 28.0667 225.244 29.9C223.577 31.7333 222.744 34.2167 222.744 37.35C222.744 40.45 223.577 42.9333 225.244 44.8C226.944 46.6333 229.21 47.55 232.044 47.55ZM272.65 55L265.35 41.75H263.3V55H254.75V19.9H269.1C271.867 19.9 274.217 20.3833 276.15 21.35C278.117 22.3167 279.584 23.65 280.55 25.35C281.517 27.0167 282 28.8833 282 30.95C282 33.2833 281.334 35.3667 280 37.2C278.7 39.0333 276.767 40.3333 274.2 41.1L282.3 55H272.65ZM263.3 35.7H268.6C270.167 35.7 271.334 35.3167 272.1 34.55C272.9 33.7833 273.3 32.7 273.3 31.3C273.3 29.9667 272.9 28.9167 272.1 28.15C271.334 27.3833 270.167 27 268.6 27H263.3V35.7ZM327.118 19.9V55H318.568V33.95L310.718 55H303.818L295.918 33.9V55H287.368V19.9H297.468L307.318 44.2L317.068 19.9H327.118Z"/>
</mask>
<path d="M210.95 19.9V26.75H196.65V34.15H207.35V40.8H196.65V55H188.1V19.9H210.95ZM232.044 55.35C228.744 55.35 225.71 54.5833 222.944 53.05C220.21 51.5167 218.027 49.3833 216.394 46.65C214.794 43.8833 213.994 40.7833 213.994 37.35C213.994 33.9167 214.794 30.8333 216.394 28.1C218.027 25.3667 220.21 23.2333 222.944 21.7C225.71 20.1667 228.744 19.4 232.044 19.4C235.344 19.4 238.36 20.1667 241.094 21.7C243.86 23.2333 246.027 25.3667 247.594 28.1C249.194 30.8333 249.994 33.9167 249.994 37.35C249.994 40.7833 249.194 43.8833 247.594 46.65C245.994 49.3833 243.827 51.5167 241.094 53.05C238.36 54.5833 235.344 55.35 232.044 55.35ZM232.044 47.55C234.844 47.55 237.077 46.6167 238.744 44.75C240.444 42.8833 241.294 40.4167 241.294 37.35C241.294 34.25 240.444 31.7833 238.744 29.95C237.077 28.0833 234.844 27.15 232.044 27.15C229.21 27.15 226.944 28.0667 225.244 29.9C223.577 31.7333 222.744 34.2167 222.744 37.35C222.744 40.45 223.577 42.9333 225.244 44.8C226.944 46.6333 229.21 47.55 232.044 47.55ZM272.65 55L265.35 41.75H263.3V55H254.75V19.9H269.1C271.867 19.9 274.217 20.3833 276.15 21.35C278.117 22.3167 279.584 23.65 280.55 25.35C281.517 27.0167 282 28.8833 282 30.95C282 33.2833 281.334 35.3667 280 37.2C278.7 39.0333 276.767 40.3333 274.2 41.1L282.3 55H272.65ZM263.3 35.7H268.6C270.167 35.7 271.334 35.3167 272.1 34.55C272.9 33.7833 273.3 32.7 273.3 31.3C273.3 29.9667 272.9 28.9167 272.1 28.15C271.334 27.3833 270.167 27 268.6 27H263.3V35.7ZM327.118 19.9V55H318.568V33.95L310.718 55H303.818L295.918 33.9V55H287.368V19.9H297.468L307.318 44.2L317.068 19.9H327.118Z" fill="black"/>
<path d="M210.95 19.9H211.95V18.9H210.95V19.9ZM210.95 26.75V27.75H211.95V26.75H210.95ZM196.65 26.75V25.75H195.65V26.75H196.65ZM196.65 34.15H195.65V35.15H196.65V34.15ZM207.35 34.15H208.35V33.15H207.35V34.15ZM207.35 40.8V41.8H208.35V40.8H207.35ZM196.65 40.8V39.8H195.65V40.8H196.65ZM196.65 55V56H197.65V55H196.65ZM188.1 55H187.1V56H188.1V55ZM188.1 19.9V18.9H187.1V19.9H188.1ZM209.95 19.9V26.75H211.95V19.9H209.95ZM210.95 25.75H196.65V27.75H210.95V25.75ZM195.65 26.75V34.15H197.65V26.75H195.65ZM196.65 35.15H207.35V33.15H196.65V35.15ZM206.35 34.15V40.8H208.35V34.15H206.35ZM207.35 39.8H196.65V41.8H207.35V39.8ZM195.65 40.8V55H197.65V40.8H195.65ZM196.65 54H188.1V56H196.65V54ZM189.1 55V19.9H187.1V55H189.1ZM188.1 20.9H210.95V18.9H188.1V20.9ZM222.944 53.05L222.454 53.9222L222.459 53.9247L222.944 53.05ZM216.394 46.65L215.528 47.1506L215.532 47.1568L215.535 47.163L216.394 46.65ZM216.394 28.1L215.535 27.587L215.531 27.5948L216.394 28.1ZM222.944 21.7L222.459 20.8253L222.454 20.8279L222.944 21.7ZM241.094 21.7L240.604 22.5722L240.609 22.5747L241.094 21.7ZM247.594 28.1L246.726 28.5973L246.731 28.6052L247.594 28.1ZM247.594 46.65L248.457 47.1552L248.459 47.1506L247.594 46.65ZM241.094 53.05L241.583 53.9221L241.583 53.9221L241.094 53.05ZM238.744 44.75L238.004 44.0766L237.998 44.084L238.744 44.75ZM238.744 29.95L237.998 30.616L238.004 30.623L238.01 30.6299L238.744 29.95ZM225.244 29.9L224.51 29.22L224.504 29.2273L225.244 29.9ZM225.244 44.8L224.498 45.466L224.504 45.473L224.51 45.4799L225.244 44.8ZM232.044 54.35C228.906 54.35 226.04 53.6229 223.428 52.1753L222.459 53.9247C225.381 55.5438 228.582 56.35 232.044 56.35V54.35ZM223.433 52.1779C220.855 50.7314 218.797 48.723 217.252 46.137L215.535 47.163C217.257 50.0437 219.566 52.3019 222.454 53.9221L223.433 52.1779ZM217.259 46.1494C215.754 43.5461 214.994 40.621 214.994 37.35H212.994C212.994 40.9456 213.834 44.2205 215.528 47.1506L217.259 46.1494ZM214.994 37.35C214.994 34.0788 215.754 31.1725 217.257 28.6052L215.531 27.5948C213.834 30.4942 212.994 33.7545 212.994 37.35H214.994ZM217.252 28.613C218.797 26.027 220.855 24.0186 223.433 22.5721L222.454 20.8279C219.566 22.4481 217.257 24.7063 215.535 27.587L217.252 28.613ZM223.428 22.5747C226.04 21.1271 228.906 20.4 232.044 20.4V18.4C228.582 18.4 225.381 19.2062 222.459 20.8253L223.428 22.5747ZM232.044 20.4C235.182 20.4 238.029 21.1271 240.605 22.5721L241.583 20.8279C238.692 19.2062 235.506 18.4 232.044 18.4V20.4ZM240.609 22.5747C243.217 24.0199 245.251 26.023 246.726 28.5973L248.461 27.6027C246.804 24.7103 244.504 22.4468 241.579 20.8253L240.609 22.5747ZM246.731 28.6052C248.234 31.1725 248.994 34.0788 248.994 37.35H250.994C250.994 33.7545 250.154 30.4942 248.457 27.5948L246.731 28.6052ZM248.994 37.35C248.994 40.6211 248.234 43.5462 246.728 46.1494L248.459 47.1506C250.154 44.2205 250.994 40.9456 250.994 37.35H248.994ZM246.731 46.1448C245.22 48.7265 243.181 50.7324 240.605 52.1779L241.583 53.9221C244.473 52.3009 246.768 50.0402 248.457 47.1552L246.731 46.1448ZM240.605 52.1779C238.029 53.6229 235.182 54.35 232.044 54.35V56.35C235.506 56.35 238.692 55.5438 241.583 53.9221L240.605 52.1779ZM232.044 48.55C235.091 48.55 237.61 47.5218 239.49 45.416L237.998 44.084C236.545 45.7116 234.597 46.55 232.044 46.55V48.55ZM239.483 45.4233C241.385 43.3348 242.294 40.6095 242.294 37.35H240.294C240.294 40.2238 239.502 42.4319 238.004 44.0767L239.483 45.4233ZM242.294 37.35C242.294 34.0612 241.387 31.33 239.477 29.2701L238.01 30.6299C239.5 32.2366 240.294 34.4388 240.294 37.35H242.294ZM239.49 29.284C237.61 27.1782 235.091 26.15 232.044 26.15V28.15C234.597 28.15 236.545 28.9884 237.998 30.616L239.49 29.284ZM232.044 26.15C228.973 26.15 226.426 27.1545 224.51 29.2201L225.977 30.5799C227.462 28.9788 229.448 28.15 232.044 28.15V26.15ZM224.504 29.2273C222.629 31.2897 221.744 34.0362 221.744 37.35H223.744C223.744 34.3972 224.525 32.177 225.984 30.5727L224.504 29.2273ZM221.744 37.35C221.744 40.6346 222.631 43.3751 224.498 45.466L225.99 44.134C224.523 42.4915 223.744 40.2654 223.744 37.35H221.744ZM224.51 45.4799C226.426 47.5455 228.973 48.55 232.044 48.55V46.55C229.448 46.55 227.462 45.7212 225.977 44.1201L224.51 45.4799ZM272.65 55L271.775 55.4826L272.06 56H272.65V55ZM265.35 41.75L266.226 41.2674L265.941 40.75H265.35V41.75ZM263.3 41.75V40.75H262.3V41.75H263.3ZM263.3 55V56H264.3V55H263.3ZM254.75 55H253.75V56H254.75V55ZM254.75 19.9V18.9H253.75V19.9H254.75ZM276.15 21.35L275.703 22.2444L275.709 22.2474L276.15 21.35ZM280.55 25.35L279.681 25.8443L279.685 25.8517L280.55 25.35ZM280 37.2L279.192 36.6118L279.185 36.6216L280 37.2ZM274.2 41.1L273.914 40.1418L272.697 40.5055L273.336 41.6035L274.2 41.1ZM282.3 55V56H284.041L283.164 54.4965L282.3 55ZM263.3 35.7H262.3V36.7H263.3V35.7ZM272.1 34.55L271.408 33.828L271.401 33.8354L271.393 33.8429L272.1 34.55ZM272.1 28.15L271.393 28.8571L271.401 28.8646L271.408 28.872L272.1 28.15ZM263.3 27V26H262.3V27H263.3ZM273.526 54.5174L266.226 41.2674L264.475 42.2326L271.775 55.4826L273.526 54.5174ZM265.35 40.75H263.3V42.75H265.35V40.75ZM262.3 41.75V55H264.3V41.75H262.3ZM263.3 54H254.75V56H263.3V54ZM255.75 55V19.9H253.75V55H255.75ZM254.75 20.9H269.1V18.9H254.75V20.9ZM269.1 20.9C271.754 20.9 273.942 21.3638 275.703 22.2444L276.598 20.4556C274.492 19.4028 271.98 18.9 269.1 18.9V20.9ZM275.709 22.2474C277.519 23.1368 278.825 24.3392 279.681 25.8443L281.42 24.8557C280.342 22.9608 278.716 21.4966 276.592 20.4525L275.709 22.2474ZM279.685 25.8517C280.557 27.3549 281 29.0463 281 30.95H283C283 28.7204 282.477 26.6784 281.415 24.8483L279.685 25.8517ZM281 30.95C281 33.0786 280.397 34.9547 279.192 36.6118L280.809 37.7882C282.271 35.7786 283 33.488 283 30.95H281ZM279.185 36.6216C278.037 38.2396 276.309 39.4264 273.914 40.1418L274.487 42.0582C277.225 41.2403 279.363 39.8271 280.816 37.7784L279.185 36.6216ZM273.336 41.6035L281.436 55.5035L283.164 54.4965L275.064 40.5965L273.336 41.6035ZM282.3 54H272.65V56H282.3V54ZM263.3 36.7H268.6V34.7H263.3V36.7ZM268.6 36.7C270.314 36.7 271.784 36.281 272.807 35.2571L271.393 33.8429C270.884 34.3523 270.02 34.7 268.6 34.7V36.7ZM272.792 35.272C273.838 34.2698 274.3 32.8965 274.3 31.3H272.3C272.3 32.5035 271.963 33.2968 271.408 33.828L272.792 35.272ZM274.3 31.3C274.3 29.7537 273.828 28.4209 272.792 27.428L271.408 28.872C271.972 29.4124 272.3 30.1796 272.3 31.3H274.3ZM272.807 27.4429C271.784 26.419 270.314 26 268.6 26V28C270.02 28 270.884 28.3477 271.393 28.8571L272.807 27.4429ZM268.6 26H263.3V28H268.6V26ZM262.3 27V35.7H264.3V27H262.3ZM327.118 19.9H328.118V18.9H327.118V19.9ZM327.118 55V56H328.118V55H327.118ZM318.568 55H317.568V56H318.568V55ZM318.568 33.95H319.568L317.631 33.6006L318.568 33.95ZM310.718 55V56H311.412L311.655 55.3494L310.718 55ZM303.818 55L302.881 55.3506L303.124 56H303.818V55ZM295.918 33.9L296.854 33.5494L294.918 33.9H295.918ZM295.918 55V56H296.918V55H295.918ZM287.368 55H286.368V56H287.368V55ZM287.368 19.9V18.9H286.368V19.9H287.368ZM297.468 19.9L298.394 19.5243L298.141 18.9H297.468V19.9ZM307.318 44.2L306.391 44.5757L307.322 46.8736L308.246 44.5724L307.318 44.2ZM317.068 19.9V18.9H316.391L316.139 19.5276L317.068 19.9ZM326.118 19.9V55H328.118V19.9H326.118ZM327.118 54H318.568V56H327.118V54ZM319.568 55V33.95H317.568V55H319.568ZM317.631 33.6006L309.781 54.6506L311.655 55.3494L319.505 34.2994L317.631 33.6006ZM310.718 54H303.818V56H310.718V54ZM304.754 54.6494L296.854 33.5494L294.981 34.2506L302.881 55.3506L304.754 54.6494ZM294.918 33.9V55H296.918V33.9H294.918ZM295.918 54H287.368V56H295.918V54ZM288.368 55V19.9H286.368V55H288.368ZM287.368 20.9H297.468V18.9H287.368V20.9ZM296.541 20.2757L306.391 44.5757L308.244 43.8243L298.394 19.5243L296.541 20.2757ZM308.246 44.5724L317.996 20.2724L316.139 19.5276L306.389 43.8276L308.246 44.5724ZM317.068 20.9H327.118V18.9H317.068V20.9Z" fill="white" mask="url(#path-2-outside-1_188_2174)"/>
<path d="M15.8 55.35C13.2333 55.35 10.9333 54.9333 8.9 54.1C6.86667 53.2667 5.23333 52.0333 4 50.4C2.8 48.7667 2.16667 46.8 2.1 44.5H11.2C11.3333 45.8 11.7833 46.8 12.55 47.5C13.3167 48.1667 14.3167 48.5 15.55 48.5C16.8167 48.5 17.8167 48.2167 18.55 47.65C19.2833 47.05 19.65 46.2333 19.65 45.2C19.65 44.3333 19.35 43.6167 18.75 43.05C18.1833 42.4833 17.4667 42.0167 16.6 41.65C15.7667 41.2833 14.5667 40.8667 13 40.4C10.7333 39.7 8.88333 39 7.45 38.3C6.01667 37.6 4.78333 36.5667 3.75 35.2C2.71667 33.8333 2.2 32.05 2.2 29.85C2.2 26.5833 3.38333 24.0333 5.75 22.2C8.11667 20.3333 11.2 19.4 15 19.4C18.8667 19.4 21.9833 20.3333 24.35 22.2C26.7167 24.0333 27.9833 26.6 28.15 29.9H18.9C18.8333 28.7667 18.4167 27.8833 17.65 27.25C16.8833 26.5833 15.9 26.25 14.7 26.25C13.6667 26.25 12.8333 26.5333 12.2 27.1C11.5667 27.6333 11.25 28.4167 11.25 29.45C11.25 30.5833 11.7833 31.4667 12.85 32.1C13.9167 32.7333 15.5833 33.4167 17.85 34.15C20.1167 34.9167 21.95 35.65 23.35 36.35C24.7833 37.05 26.0167 38.0667 27.05 39.4C28.0833 40.7333 28.6 42.45 28.6 44.55C28.6 46.55 28.0833 48.3667 27.05 50C26.05 51.6333 24.5833 52.9333 22.65 53.9C20.7167 54.8667 18.4333 55.35 15.8 55.35ZM73.6117 19.9V55H65.0617V33.95L57.2117 55H50.3117L42.4117 33.9V55H33.8617V19.9H43.9617L53.8117 44.2L63.5617 19.9H73.6117ZM101.61 48.8H88.5102L86.4102 55H77.4602L90.1602 19.9H100.06L112.76 55H103.71L101.61 48.8ZM99.4102 42.2L95.0602 29.35L90.7602 42.2H99.4102ZM134.525 55L127.225 41.75H125.175V55H116.625V19.9H130.975C133.742 19.9 136.092 20.3833 138.025 21.35C139.992 22.3167 141.459 23.65 142.425 25.35C143.392 27.0167 143.875 28.8833 143.875 30.95C143.875 33.2833 143.209 35.3667 141.875 37.2C140.575 39.0333 138.642 40.3333 136.075 41.1L144.175 55H134.525ZM125.175 35.7H130.475C132.042 35.7 133.209 35.3167 133.975 34.55C134.775 33.7833 135.175 32.7 135.175 31.3C135.175 29.9667 134.775 28.9167 133.975 28.15C133.209 27.3833 132.042 27 130.475 27H125.175V35.7ZM174.493 19.9V26.75H165.193V55H156.643V26.75H147.343V19.9H174.493Z" fill="#5CE1E6"/>
</svg>
