<?xml version="1.0" standalone="no"?>
<!DOCTYPE svg PUBLIC "-//W3C//DTD SVG 20010904//EN"
 "http://www.w3.org/TR/2001/REC-SVG-20010904/DTD/svg10.dtd">
<svg version="1.0" xmlns="http://www.w3.org/2000/svg"
 width="700.000000pt" height="700.000000pt" viewBox="0 0 700.000000 700.000000"
 preserveAspectRatio="xMidYMid meet">
<metadata>
Created by potrace 1.14, written by Peter Selinger 2001-2017
</metadata>
<g transform="translate(0.000000,700.000000) scale(0.100000,-0.100000)"
fill="#000000" stroke="none">
<path d="M1319 6995 c-2 -1 -31 -6 -64 -10 -32 -3 -62 -8 -65 -10 -3 -2 -21
-6 -40 -9 -166 -26 -407 -138 -575 -265 -283 -215 -498 -563 -550 -891 -3 -19
-10 -60 -15 -90 -5 -31 -9 -597 -9 -1282 -1 -984 1 -1228 11 -1228 74 -2 271
0 274 2 2 2 5 560 7 1239 2 678 7 1252 11 1274 49 259 160 470 338 647 150
149 365 267 558 307 30 6 66 14 80 18 19 5 673 10 1595 13 l41 0 0 145 1 146
-798 -1 c-438 -1 -798 -3 -800 -5z"/>
<path d="M3385 5454 c-200 -23 -411 -91 -570 -182 -44 -25 -82 -49 -85 -52 -3
-3 -21 -17 -42 -32 -93 -70 -189 -183 -251 -298 -34 -63 -84 -197 -94 -250 -2
-14 -6 -36 -9 -50 -11 -55 -14 -272 -4 -346 31 -226 99 -364 256 -516 158
-153 332 -235 799 -378 476 -146 589 -194 695 -299 95 -93 127 -173 122 -306
-9 -211 -142 -358 -370 -409 -75 -17 -223 -22 -297 -11 -170 26 -307 118 -377
253 -23 44 -51 139 -60 207 -3 20 -11 20 -397 20 l-393 1 6 -79 c43 -547 494
-940 1151 -1003 139 -14 407 -8 495 11 14 3 41 8 60 11 116 18 234 58 360 123
370 190 592 556 584 961 -1 76 -9 165 -19 209 -43 191 -113 311 -265 455 -99
92 -196 154 -343 216 -108 46 -361 137 -402 146 -31 6 -299 92 -410 131 -253
89 -403 214 -430 358 -17 92 2 231 42 308 23 45 80 104 129 132 88 52 158 68
294 68 178 0 274 -30 387 -119 92 -73 150 -172 166 -284 l4 -25 399 0 399 0
-2 61 c-2 72 -32 198 -69 290 -93 232 -271 417 -519 540 -96 47 -230 95 -303
109 -58 11 -141 25 -182 31 -83 12 -344 10 -455 -2z"/>
<path d="M6709 2468 c0 -568 -2 -1055 -4 -1083 -11 -223 -114 -485 -259 -664
-92 -113 -247 -237 -383 -305 -79 -40 -228 -92 -288 -100 -22 -4 -65 -10 -95
-15 -30 -5 -451 -9 -935 -9 -484 -1 -897 -1 -917 -1 l-38 -1 0 -145 0 -146
968 4 c532 2 981 6 997 10 17 4 55 12 85 18 30 6 102 26 160 45 529 171 918
645 989 1204 5 42 10 543 10 1148 l1 1072 -145 0 -145 0 -1 -1032z"/>
</g>
</svg>
