<svg width="356" height="68" viewBox="0 0 356 68" fill="none" xmlns="http://www.w3.org/2000/svg">
<path d="M14.1667 0H28.3333V2.83333H14.1667C7.90744 2.83333 2.83333 7.90744 2.83333 14.1667V36.8333H0V14.1667C0 6.34263 6.34263 0 14.1667 0Z" fill="#8777E0"/>
<path d="M36.8333 68H53.8333C61.6574 68 68 61.6574 68 53.8333V34H65.1667V53.8333C65.1667 60.0926 60.0926 65.1667 53.8333 65.1667H36.8333V68Z" fill="#8777E0"/>
<path d="M35.6433 51.357C33.1613 51.357 30.9173 50.932 28.9113 50.082C26.9393 49.232 25.3753 48.008 24.2193 46.41C23.0633 44.812 22.4683 42.925 22.4343 40.749H30.0843C30.1863 42.211 30.6963 43.367 31.6143 44.217C32.5663 45.067 33.8583 45.492 35.4903 45.492C37.1563 45.492 38.4653 45.101 39.4173 44.319C40.3693 43.503 40.8453 42.449 40.8453 41.157C40.8453 40.103 40.5223 39.236 39.8763 38.556C39.2303 37.876 38.4143 37.349 37.4283 36.975C36.4763 36.567 35.1503 36.125 33.4503 35.649C31.1383 34.969 29.2513 34.306 27.7893 33.66C26.3613 32.98 25.1203 31.977 24.0663 30.651C23.0463 29.291 22.5363 27.489 22.5363 25.245C22.5363 23.137 23.0633 21.301 24.1173 19.737C25.1713 18.173 26.6503 16.983 28.5543 16.167C30.4583 15.317 32.6343 14.892 35.0823 14.892C38.7543 14.892 41.7293 15.793 44.0073 17.595C46.3193 19.363 47.5943 21.845 47.8323 25.041H39.9783C39.9103 23.817 39.3833 22.814 38.3973 22.032C37.4453 21.216 36.1703 20.808 34.5723 20.808C33.1783 20.808 32.0563 21.165 31.2063 21.879C30.3903 22.593 29.9823 23.63 29.9823 24.99C29.9823 25.942 30.2883 26.741 30.9003 27.387C31.5463 27.999 32.3283 28.509 33.2463 28.917C34.1983 29.291 35.5243 29.733 37.2243 30.243C39.5363 30.923 41.4233 31.603 42.8853 32.283C44.3473 32.963 45.6053 33.983 46.6593 35.343C47.7133 36.703 48.2403 38.488 48.2403 40.698C48.2403 42.602 47.7473 44.37 46.7613 46.002C45.7753 47.634 44.3303 48.943 42.4263 49.929C40.5223 50.881 38.2613 51.357 35.6433 51.357Z" fill="#8777E0"/>
<path d="M110.4 48.28C108.453 48.28 106.693 47.9467 105.12 47.28C103.573 46.6133 102.347 45.6533 101.44 44.4C100.533 43.1467 100.067 41.6667 100.04 39.96H106.04C106.12 41.1067 106.52 42.0133 107.24 42.68C107.987 43.3467 109 43.68 110.28 43.68C111.587 43.68 112.613 43.3733 113.36 42.76C114.107 42.12 114.48 41.2933 114.48 40.28C114.48 39.4533 114.227 38.7733 113.72 38.24C113.213 37.7067 112.573 37.2933 111.8 37C111.053 36.68 110.013 36.3333 108.68 35.96C106.867 35.4267 105.387 34.9067 104.24 34.4C103.12 33.8667 102.147 33.08 101.32 32.04C100.52 30.9733 100.12 29.56 100.12 27.8C100.12 26.1467 100.533 24.7067 101.36 23.48C102.187 22.2533 103.347 21.32 104.84 20.68C106.333 20.0133 108.04 19.68 109.96 19.68C112.84 19.68 115.173 20.3867 116.96 21.8C118.773 23.1867 119.773 25.1333 119.96 27.64H113.8C113.747 26.68 113.333 25.8933 112.56 25.28C111.813 24.64 110.813 24.32 109.56 24.32C108.467 24.32 107.587 24.6 106.92 25.16C106.28 25.72 105.96 26.5333 105.96 27.6C105.96 28.3467 106.2 28.9733 106.68 29.48C107.187 29.96 107.8 30.36 108.52 30.68C109.267 30.9733 110.307 31.32 111.64 31.72C113.453 32.2533 114.933 32.7867 116.08 33.32C117.227 33.8533 118.213 34.6533 119.04 35.72C119.867 36.7867 120.28 38.1867 120.28 39.92C120.28 41.4133 119.893 42.8 119.12 44.08C118.347 45.36 117.213 46.3867 115.72 47.16C114.227 47.9067 112.453 48.28 110.4 48.28ZM152.655 25.52C155.375 25.52 157.562 26.36 159.215 28.04C160.895 29.6933 161.735 32.0133 161.735 35V48H156.135V35.76C156.135 34.0267 155.695 32.7067 154.815 31.8C153.935 30.8667 152.735 30.4 151.215 30.4C149.695 30.4 148.482 30.8667 147.575 31.8C146.695 32.7067 146.255 34.0267 146.255 35.76V48H140.655V35.76C140.655 34.0267 140.215 32.7067 139.335 31.8C138.455 30.8667 137.255 30.4 135.735 30.4C134.188 30.4 132.962 30.8667 132.055 31.8C131.175 32.7067 130.735 34.0267 130.735 35.76V48H125.135V25.84H130.735V28.52C131.455 27.5867 132.375 26.8533 133.495 26.32C134.642 25.7867 135.895 25.52 137.255 25.52C138.988 25.52 140.535 25.8933 141.895 26.64C143.255 27.36 144.308 28.4 145.055 29.76C145.775 28.48 146.815 27.4533 148.175 26.68C149.562 25.9067 151.055 25.52 152.655 25.52ZM165.609 36.84C165.609 34.6 166.049 32.6133 166.929 30.88C167.836 29.1467 169.049 27.8133 170.569 26.88C172.116 25.9467 173.836 25.48 175.729 25.48C177.382 25.48 178.822 25.8133 180.049 26.48C181.302 27.1467 182.302 27.9867 183.049 29V25.84H188.689V48H183.049V44.76C182.329 45.8 181.329 46.6667 180.049 47.36C178.796 48.0267 177.342 48.36 175.689 48.36C173.822 48.36 172.116 47.88 170.569 46.92C169.049 45.96 167.836 44.6133 166.929 42.88C166.049 41.12 165.609 39.1067 165.609 36.84ZM183.049 36.92C183.049 35.56 182.782 34.4 182.249 33.44C181.716 32.4533 180.996 31.7067 180.089 31.2C179.182 30.6667 178.209 30.4 177.169 30.4C176.129 30.4 175.169 30.6533 174.289 31.16C173.409 31.6667 172.689 32.4133 172.129 33.4C171.596 34.36 171.329 35.5067 171.329 36.84C171.329 38.1733 171.596 39.3467 172.129 40.36C172.689 41.3467 173.409 42.1067 174.289 42.64C175.196 43.1733 176.156 43.44 177.169 43.44C178.209 43.44 179.182 43.1867 180.089 42.68C180.996 42.1467 181.716 41.4 182.249 40.44C182.782 39.4533 183.049 38.28 183.049 36.92ZM199.758 29.28C200.478 28.1067 201.412 27.1867 202.558 26.52C203.732 25.8533 205.065 25.52 206.558 25.52V31.4H205.078C203.318 31.4 201.985 31.8133 201.078 32.64C200.198 33.4667 199.758 34.9067 199.758 36.96V48H194.158V25.84H199.758V29.28ZM216.85 30.44V41.16C216.85 41.9067 217.024 42.4533 217.37 42.8C217.744 43.12 218.357 43.28 219.21 43.28H221.81V48H218.29C213.57 48 211.21 45.7067 211.21 41.12V30.44H208.57V25.84H211.21V20.36H216.85V25.84H221.81V30.44H216.85ZM243.078 20.08V24.6H231.438V31.76H240.358V36.2H231.438V48H225.838V20.08H243.078ZM256.889 48.36C254.756 48.36 252.836 47.8933 251.129 46.96C249.422 46 248.076 44.6533 247.089 42.92C246.129 41.1867 245.649 39.1867 245.649 36.92C245.649 34.6533 246.142 32.6533 247.129 30.92C248.142 29.1867 249.516 27.8533 251.249 26.92C252.982 25.96 254.916 25.48 257.049 25.48C259.182 25.48 261.116 25.96 262.849 26.92C264.582 27.8533 265.942 29.1867 266.929 30.92C267.942 32.6533 268.449 34.6533 268.449 36.92C268.449 39.1867 267.929 41.1867 266.889 42.92C265.876 44.6533 264.489 46 262.729 46.96C260.996 47.8933 259.049 48.36 256.889 48.36ZM256.889 43.48C257.902 43.48 258.849 43.24 259.729 42.76C260.636 42.2533 261.356 41.5067 261.889 40.52C262.422 39.5333 262.689 38.3333 262.689 36.92C262.689 34.8133 262.129 33.2 261.009 32.08C259.916 30.9333 258.569 30.36 256.969 30.36C255.369 30.36 254.022 30.9333 252.929 32.08C251.862 33.2 251.329 34.8133 251.329 36.92C251.329 39.0267 251.849 40.6533 252.889 41.8C253.956 42.92 255.289 43.48 256.889 43.48ZM278.157 29.28C278.877 28.1067 279.81 27.1867 280.957 26.52C282.13 25.8533 283.464 25.52 284.957 25.52V31.4H283.477C281.717 31.4 280.384 31.8133 279.477 32.64C278.597 33.4667 278.157 34.9067 278.157 36.96V48H272.557V25.84H278.157V29.28ZM316.249 25.52C318.969 25.52 321.155 26.36 322.809 28.04C324.489 29.6933 325.329 32.0133 325.329 35V48H319.729V35.76C319.729 34.0267 319.289 32.7067 318.409 31.8C317.529 30.8667 316.329 30.4 314.809 30.4C313.289 30.4 312.075 30.8667 311.169 31.8C310.289 32.7067 309.849 34.0267 309.849 35.76V48H304.249V35.76C304.249 34.0267 303.809 32.7067 302.929 31.8C302.049 30.8667 300.849 30.4 299.329 30.4C297.782 30.4 296.555 30.8667 295.649 31.8C294.769 32.7067 294.329 34.0267 294.329 35.76V48H288.729V25.84H294.329V28.52C295.049 27.5867 295.969 26.8533 297.089 26.32C298.235 25.7867 299.489 25.52 300.849 25.52C302.582 25.52 304.129 25.8933 305.489 26.64C306.849 27.36 307.902 28.4 308.649 29.76C309.369 28.48 310.409 27.4533 311.769 26.68C313.155 25.9067 314.649 25.52 316.249 25.52ZM347.363 48L341.323 38.6L335.843 48H329.523L338.323 33.92L329.403 20.08H335.843L341.883 29.44L347.323 20.08H353.643L344.883 34.12L353.803 48H347.363Z" fill="black"/>
</svg>
