<svg width="90" height="70" viewBox="0 0 90 70" fill="none" xmlns="http://www.w3.org/2000/svg">
<path d="M41.8755 51.2607C41.9062 53.6648 41.4282 56.047 40.4741 58.2441C39.5201 60.4413 38.1126 62.4015 36.3481 63.9905C32.5635 67.5833 27.5654 69.5398 22.4001 69.4504C15.8444 69.5079 10.6478 67.2208 6.81036 62.5892C2.97708 57.984 0.899192 52.1193 0.959038 46.0741C0.832231 31.6031 4.61986 20.6793 12.3219 13.3028C20.024 5.92623 28.5854 1.80471 38.0061 0.938219L38.1452 16.8117C33.3989 17.3706 28.9181 19.342 25.2591 22.4814C23.3748 23.9489 21.8283 25.821 20.7286 27.9659C19.629 30.1108 19.0028 32.4763 18.8944 34.8957C20.4533 34.1023 22.1722 33.6925 23.9139 33.6988C29.5449 33.6495 33.9347 35.2442 37.0833 38.483C38.6743 40.1795 39.9178 42.1837 40.7407 44.378C41.5637 46.5722 41.9495 48.9123 41.8755 51.2607ZM89.8029 50.8407C89.8358 53.2451 89.3588 55.6281 88.4046 57.8256C87.4504 60.0231 86.0417 61.983 84.2755 63.5705C80.4908 67.1633 75.4927 69.1198 70.3275 69.0304C63.7868 69.0878 58.6316 66.8003 54.8617 62.1682C51.0739 57.5405 49.0233 51.6849 49.0781 45.6524C48.9513 31.1814 52.6976 20.258 60.3169 12.8822C67.9363 5.50638 76.4863 1.36958 85.9669 0.471825L86.106 16.3453C81.3702 16.9241 76.9054 18.9114 73.2654 22.0607C71.3668 23.5197 69.8061 25.3885 68.6944 27.5343C67.5826 29.68 66.9471 32.05 66.833 34.4756C68.3878 33.682 70.1031 33.2721 71.8412 33.2789C77.4647 33.2296 81.8545 34.8243 85.0106 38.0631C86.6017 39.759 87.8445 41.7634 88.6656 43.958C89.4867 46.1526 89.8696 48.4929 89.7916 50.8408L89.8029 50.8407Z" fill="black"/>
</svg>
