<svg width="192" height="190" viewBox="0 0 192 190" fill="none" xmlns="http://www.w3.org/2000/svg">
<path d="M40 0H80V7.91667H40C22.3269 7.91667 8 22.0943 8 39.5833V102.917H0V39.5833C0 17.7221 17.9086 0 40 0Z" fill="#5CE1E6"/>
<path d="M104 190H152C174.091 190 192 172.278 192 150.417V95H184V150.417C184 167.906 169.673 182.083 152 182.083H104V190Z" fill="#5CE1E6"/>
<path d="M100.64 143.497C93.632 143.497 87.296 142.31 81.632 139.935C76.064 137.56 71.648 134.14 68.384 129.675C65.12 125.21 63.44 119.937 63.344 113.857H84.944C85.232 117.942 86.672 121.172 89.264 123.547C91.952 125.922 95.6 127.11 100.208 127.11C104.912 127.11 108.608 126.017 111.296 123.832C113.984 121.553 115.328 118.607 115.328 114.997C115.328 112.052 114.416 109.63 112.592 107.73C110.768 105.83 108.464 104.358 105.68 103.312C102.992 102.172 99.248 100.937 94.448 99.6075C87.92 97.7075 82.592 95.855 78.464 94.05C74.432 92.15 70.928 89.3475 67.952 85.6425C65.072 81.8425 63.632 76.8075 63.632 70.5375C63.632 64.6475 65.12 59.5175 68.096 55.1475C71.072 50.7775 75.248 47.4525 80.624 45.1725C86 42.7975 92.144 41.61 99.056 41.61C109.424 41.61 117.824 44.1275 124.256 49.1625C130.784 54.1025 134.384 61.0375 135.056 69.9675H112.88C112.688 66.5475 111.2 63.745 108.416 61.56C105.728 59.28 102.128 58.14 97.616 58.14C93.68 58.14 90.512 59.1375 88.112 61.1325C85.808 63.1275 84.656 66.025 84.656 69.825C84.656 72.485 85.52 74.7175 87.248 76.5225C89.072 78.2325 91.28 79.6575 93.872 80.7975C96.56 81.8425 100.304 83.0775 105.104 84.5025C111.632 86.4025 116.96 88.3025 121.088 90.2025C125.216 92.1025 128.768 94.9525 131.744 98.7525C134.72 102.552 136.208 107.54 136.208 113.715C136.208 119.035 134.816 123.975 132.032 128.535C129.248 133.095 125.168 136.752 119.792 139.507C114.416 142.167 108.032 143.497 100.64 143.497Z" fill="#5CE1E6"/>
</svg>
